<svg width="1172" height="537" viewBox="0 0 1172 537" fill="none" xmlns="http://www.w3.org/2000/svg">
<path d="M13.8954 313.005C23.0624 303.841 34.9714 302.904 49.9023 303.007C91.5681 303.294 118.369 374.398 78.1935 382.988C67.5406 385.265 49.9023 382.988 49.9023 382.988C27.9271 377.969 20.2368 364.107 13.8954 346.996C9.16788 334.241 3.41251 323.483 13.8954 313.005Z" fill="#F3DAB3" stroke="black" stroke-width="15"/>
<path d="M1036.57 155.424C1024.24 152.829 1017.6 162.648 1008.57 171.424C998.283 181.414 994.165 189.544 990.568 203.424C987.04 217.033 990.568 239.424 990.568 239.424C990.568 239.424 1003.76 263.594 1018.57 265.424C1035.78 267.549 1045.07 253.934 1054.57 239.424C1069.11 217.204 1070.28 192.833 1054.57 171.424C1049 163.841 1048.89 158.018 1036.57 155.424Z" fill="#F3DAB3" stroke="black" stroke-width="15"/>
<path d="M20.8628 377.091C36.8527 363.341 56.5036 366.715 74.8628 377.091C97.7203 390.009 110.804 414.79 100.863 439.091C95.4259 452.381 88.1531 459.654 74.8628 465.091C61.8507 470.414 51.8121 470.565 38.8628 465.091C21.8842 457.913 15.1705 445.014 10.8628 427.091C6.2094 407.729 5.76418 390.074 20.8628 377.091Z" fill="#F3DAB3" stroke="black" stroke-width="15"/>
<path d="M100.958 466.079C133.689 496.568 192.958 504.079 192.958 504.079H302.958C302.958 504.079 374.132 494.736 396.958 496.079C414.111 497.089 425.813 502.927 442.958 504.079C482.093 506.71 540.958 526.079 540.958 526.079C595.179 533.094 626.284 526.079 680.958 526.079C680.958 526.079 742.957 526.079 772.958 514.079C802.958 502.079 822.958 480.079 822.958 480.079C822.958 480.079 986.46 474.186 1086.96 452.079C1100.28 449.149 1108.86 450.386 1120.96 444.079C1146.73 430.639 1152.97 408.522 1158.96 380.079C1165.13 350.786 1167.77 327.365 1148.96 304.079C1143.05 296.763 1139.92 290.934 1130.96 288.079C1116.3 283.409 1097.22 313.866 1094.96 304.079C1088.96 278.079 1000.96 230.079 1000.96 230.079C1000.96 230.079 998.328 195.036 990.958 174.079C976.549 133.108 954.389 116.051 922.958 86.0793C895.03 59.4493 878.124 43.9664 842.958 28.0793C796.147 6.93199 764.323 7.8344 712.958 8.07928C663.136 8.31681 634.116 12.0054 586.958 28.0793C541.644 43.5247 519.546 60.6917 478.958 86.0793C424.129 120.375 362.958 198.079 346.958 186.079C330.958 174.079 323.596 153.937 302.958 140.079C280.797 125.199 265.649 115.797 238.958 116.079C212.996 116.354 199.711 127.575 176.958 140.079C151.082 154.299 138.848 166.266 116.958 186.079C94.0126 206.847 78.0408 217.056 62.9576 244.079C43.5475 278.855 39.8997 304.371 42.9576 344.079C47.0083 396.678 62.3556 430.123 100.958 466.079Z" fill="#F3DAB3" stroke="black" stroke-width="10"/>
<path d="M582.5 367.5C590.5 371.5 675 401 675 401C713.271 404.905 734.728 407.095 773 411C773 411 814.434 414.658 825 432C834.346 447.341 834.346 462.659 825 478" stroke="black" stroke-width="15"/>
<path d="M335.5 176C340.057 176.15 360.445 211.666 372.721 229.442C380.661 240.94 396.794 256.858 396.794 256.858" stroke="black" stroke-width="15"/>
<path d="M207 254.5C207 273.554 197.598 289 186 289C174.402 289 165 273.554 165 254.5C165 235.446 174.402 220 186 220C197.598 220 207 235.446 207 254.5Z" fill="black"/>
<path d="M228 254.5C228 273.554 218.598 289 207 289C195.402 289 186 273.554 186 254.5C186 235.446 195.402 220 207 220C218.598 220 228 235.446 228 254.5Z" fill="#F3DAB3"/>
<path d="M292 141.543C292 161.016 276.49 189.518 242.459 189.518C208.429 189.518 151 194.152 151 174.679C152.5 155.737 187.969 122 222 122C256.031 122 292 122.07 292 141.543Z" fill="white"/>
<path d="M428.848 171.846C423.414 160.978 425 152.5 408 155C391 157.5 444 122.5 458.5 104C473 85.5 472.723 108.162 480.848 115.846C491.28 125.713 493.02 135.603 494.848 149.846C497.524 170.705 491.357 183.629 480.848 201.846C473.101 215.275 470.338 231.194 454.848 231.846C442.936 232.347 435.68 225.616 428.848 215.846C419.001 201.764 436.532 187.215 428.848 171.846Z" fill="white"/>
<path d="M170.581 118.617C165.577 127.723 163.507 133.104 169.683 141.099C185.096 161.053 199.759 152.061 227.856 137.919C235.112 134.266 258.033 125.897 256.512 122.05C254.991 118.202 216.27 87.2655 196.078 94.1155C182.856 98.601 175.684 109.331 170.581 118.617Z" fill="black" stroke="black" stroke-width="15"/>
<path d="M100.958 466.079C133.689 496.568 192.958 504.079 192.958 504.079H302.958C302.958 504.079 374.132 494.736 396.958 496.079C414.111 497.089 425.813 502.927 442.958 504.079C482.093 506.71 540.958 526.079 540.958 526.079C595.179 533.094 626.284 526.079 680.958 526.079C680.958 526.079 742.957 526.079 772.958 514.079C802.958 502.079 822.958 480.079 822.958 480.079C822.958 480.079 986.46 474.186 1086.96 452.079C1100.28 449.149 1108.86 450.386 1120.96 444.079C1146.73 430.639 1152.97 408.522 1158.96 380.079C1165.13 350.786 1167.77 327.365 1148.96 304.079C1143.05 296.763 1139.92 290.934 1130.96 288.079C1116.3 283.409 1097.22 313.866 1094.96 304.079C1088.96 278.079 1000.96 230.079 1000.96 230.079C1000.96 230.079 998.328 195.036 990.958 174.079C976.549 133.108 954.389 116.051 922.958 86.0793C895.03 59.4493 878.124 43.9664 842.958 28.0793C796.147 6.93199 764.323 7.8344 712.958 8.07928C663.136 8.31681 634.116 12.0054 586.958 28.0793C541.644 43.5247 519.546 60.6917 478.958 86.0793C424.129 120.375 362.958 198.079 346.958 186.079C330.958 174.079 323.596 153.937 302.958 140.079C280.797 125.199 265.649 115.797 238.958 116.079C212.996 116.354 199.711 127.575 176.958 140.079C151.082 154.299 138.848 166.266 116.958 186.079C94.0126 206.847 78.0408 217.056 62.9576 244.079C43.5475 278.855 39.8997 304.371 42.9576 344.079C47.0083 396.678 62.3556 430.123 100.958 466.079Z" stroke="black" stroke-width="15"/>
<path d="M20.8628 377.091C36.8527 363.341 56.5036 366.715 74.8628 377.091C97.7203 390.009 110.804 414.79 100.863 439.091C95.4259 452.381 88.1531 459.654 74.8628 465.091C61.8507 470.414 51.8121 470.565 38.8628 465.091C21.8842 457.913 15.1705 445.014 10.8628 427.091C6.2094 407.729 5.76418 390.074 20.8628 377.091Z" fill="#F3DAB3" stroke="black" stroke-width="15"/>
<path d="M66.8468 411.773C61.5998 391.348 73.3264 375.222 90.7593 363.356C112.464 348.582 140.477 347.825 157.862 367.499C167.371 378.259 170.671 388.001 169.661 402.325C168.672 416.349 164.362 425.416 153.719 434.602C139.765 446.647 125.226 446.955 107.249 442.88C87.8285 438.479 71.8013 431.059 66.8468 411.773Z" fill="#F3DAB3"/>
</svg>
