<svg width="953" height="1121" viewBox="0 0 953 1121" fill="none" xmlns="http://www.w3.org/2000/svg">
<path d="M102.976 643.066L102.976 643.066L102.976 643.065L100.869 635.244L94.8854 640.546L94.8848 640.546L94.8846 640.547L94.879 640.551L94.8497 640.577C94.8222 640.601 94.7792 640.639 94.721 640.69C94.6045 640.792 94.4275 640.946 94.1935 641.147C93.7255 641.549 93.0303 642.14 92.1376 642.88C90.3511 644.361 87.7793 646.437 84.6591 648.794C78.3911 653.529 70.0299 659.311 61.4423 663.72C52.6708 668.224 44.4542 670.874 38.2238 670.318C35.2697 670.054 32.9281 669.086 31.0747 667.367C29.1885 665.618 27.4111 662.721 26.272 657.92C17.9485 622.84 30.2734 586.379 59.4592 564.908C77.1586 551.888 99.8768 543.38 118.427 538.122C127.656 535.507 135.757 533.722 141.542 532.593C143.951 532.123 145.956 531.767 147.47 531.513C147.909 532.27 148.425 533.168 149.006 534.196C151.038 537.791 153.868 542.973 157.04 549.288C163.396 561.942 171.066 579.031 176.462 596.954C181.886 614.972 184.852 633.324 182.284 648.714C179.775 663.756 172.023 675.978 155.445 682.69C145.848 686.575 138.15 686.001 131.888 683.333C125.462 680.596 120.069 675.442 115.665 669.405C111.279 663.392 108.089 656.795 105.987 651.633C104.942 649.067 104.18 646.892 103.683 645.371C103.434 644.612 103.253 644.017 103.136 643.622C103.077 643.425 103.035 643.277 103.009 643.183C103.002 643.161 102.997 643.141 102.992 643.125C102.988 643.108 102.984 643.094 102.981 643.084L102.977 643.069L102.976 643.066Z" fill="white" stroke="black" stroke-width="10"/>
<path d="M160.775 842.519C159.677 844.129 158.453 845.915 157.115 847.852C150.902 856.849 142.23 869.132 132.398 882.271C112.892 908.34 88.3188 938.472 69.2513 952.5C40.3342 973.773 30.9603 1010.14 39.3695 1045.58C40.4683 1050.21 42.2777 1052.5 44.0622 1053.67C45.9051 1054.87 48.5446 1055.43 52.286 1054.95C59.9853 1053.96 70.0671 1048.88 80.5526 1041.9C90.8629 1035.03 100.917 1026.78 108.433 1020.2C112.18 1016.92 115.275 1014.07 117.429 1012.05C118.506 1011.04 119.346 1010.24 119.915 1009.69C120.199 1009.41 120.415 1009.2 120.559 1009.06C120.63 1008.99 120.684 1008.94 120.719 1008.91L120.757 1008.87L120.765 1008.86L120.767 1008.86L120.767 1008.86L160.775 842.519ZM160.775 842.519C161.266 844.511 161.821 846.731 162.435 849.148C165.198 860.008 169.178 874.859 174.045 890.806C178.91 906.742 184.681 923.841 191.035 939.176C197.146 953.924 203.944 967.413 211.196 976.636C217.943 1003.35 218.515 1016.71 214.757 1028.18C212.823 1034.08 209.649 1039.75 205.048 1046.68C202.599 1050.37 199.925 1054.16 196.912 1058.43C194.086 1062.44 190.962 1066.87 187.447 1072.03C184.637 1076.16 182.051 1077.79 179.954 1078.31C177.872 1078.83 175.407 1078.48 172.37 1076.84C166.019 1073.41 159.002 1065.36 152.266 1055.24C145.662 1045.32 139.804 1034.17 135.575 1025.43C133.468 1021.08 131.779 1017.35 130.619 1014.72C130.04 1013.4 129.593 1012.36 129.293 1011.65C129.223 1011.49 129.162 1011.35 129.109 1011.22C129.046 1011.07 128.994 1010.95 128.954 1010.85C128.916 1010.76 128.889 1010.69 128.87 1010.65L128.851 1010.6L128.846 1010.59L128.846 1010.59L128.846 1010.59L160.775 842.519Z" fill="white" stroke="black" stroke-width="10"/>
<path d="M403.178 606.083C411.579 619.23 421.22 636.112 426.91 651.914C426.925 658.868 427.104 665.825 427.282 672.707C427.724 689.85 428.154 706.525 425.99 721.517C422.982 742.357 415.154 758.197 396.222 765.861C387.305 769.471 380.156 767.62 373.935 762.711C367.391 757.547 361.852 748.916 357.363 739.144C352.92 729.473 349.737 719.201 347.66 711.286C346.624 707.343 345.872 704.016 345.38 701.684C345.134 700.519 344.953 699.603 344.836 698.986C344.777 698.677 344.733 698.443 344.705 698.289C344.691 698.212 344.681 698.155 344.675 698.119L344.668 698.081L344.667 698.075L344.667 698.074L344.667 698.073L343.641 692.164L338.078 694.149L338.077 694.149L338.075 694.15L338.075 694.15L338.054 694.157C338.032 694.165 337.995 694.178 337.944 694.195C337.842 694.23 337.683 694.285 337.469 694.355C337.043 694.497 336.403 694.703 335.575 694.954C333.919 695.456 331.524 696.132 328.612 696.812C322.759 698.179 314.954 699.532 306.929 699.581C298.851 699.631 290.965 698.358 284.64 694.847C278.52 691.45 273.529 685.788 271.247 676.172C266.846 657.621 271.737 643.05 281.655 631.269C291.76 619.264 307.186 610.08 323.717 603.188C340.175 596.326 357.295 591.912 370.357 589.213C376.874 587.866 382.35 586.953 386.187 586.377C387.428 586.191 388.496 586.041 389.372 585.922C390.115 586.93 391.075 588.249 392.207 589.837C395.034 593.8 398.926 599.431 403.178 606.083Z" fill="white" stroke="black" stroke-width="10"/>
<path d="M152.905 913.662C143.327 911.076 134.834 903.746 127.46 891.813C120.087 879.881 114.124 863.792 109.51 844.646C100.288 806.378 96.7017 756.967 97.2707 706.955C97.8393 656.986 102.552 606.715 109.786 566.825C113.405 546.87 117.634 529.633 122.242 516.379C124.546 509.751 126.912 504.214 129.293 499.869C131.705 495.469 133.978 492.576 135.978 490.948C157.468 473.446 185.456 452.744 215.02 438.518C244.7 424.236 275.138 416.884 301.934 424.821C326.126 431.986 343.456 452.098 357.701 477.908C367.76 496.133 375.923 516.476 383.854 536.241C387.196 544.57 390.497 552.796 393.882 560.718C394.885 563.067 395.483 566.63 395.387 571.586C395.293 576.48 394.531 582.394 393.106 589.225C390.256 602.886 384.852 619.758 377.382 638.656C362.453 676.428 339.482 721.773 312.984 764.77C286.468 807.797 256.571 848.23 227.86 876.324C213.497 890.378 199.606 901.17 186.748 907.699C173.862 914.243 162.521 916.259 152.905 913.662Z" fill="white" stroke="black" stroke-width="10"/>
<ellipse cx="21.4647" cy="8.06415" rx="21.4647" ry="8.06415" transform="matrix(-0.284028 -0.958816 0.961957 -0.273201 344.249 517.586)" fill="black"/>
<ellipse cx="21.6816" cy="7.98475" rx="21.6816" ry="7.98475" transform="matrix(0.749294 -0.662237 -0.677792 -0.735253 195.104 488.361)" fill="black"/>
<path d="M165.295 620.109C162.277 634.488 184.211 658.856 184.211 674.8C184.211 688.841 112.741 738.403 127.915 728.2C116.28 736.023 91.5896 709.413 94.6348 698.916C99.0328 683.755 98.1106 644.98 98.1106 644.98L103.659 576.123C103.659 576.123 121.412 541.449 141.989 540.44C166.665 539.231 191.639 566.053 202.145 577.106C213.238 588.778 168.313 605.73 165.295 620.109Z" fill="#C75151"/>
<path d="M149.043 829.631C149.013 834.132 156.25 857.502 152.198 860.886C148.028 864.368 129.448 871.775 137.684 867.846C131.368 870.858 112.502 864.22 113.055 860.886C113.854 856.072 107.653 840.91 107.653 840.91L104.46 819.857C104.46 819.857 91.8811 792.278 123.687 786.091C139.582 782.999 156.713 767.221 167.803 798.424C170.764 806.757 149.074 825.13 149.043 829.631Z" fill="#F5ED9C"/>
<path d="M285.968 683.411C298.228 662.452 291.065 611.356 311.271 605.157C330.407 599.286 375.821 563.872 391.123 579.868C403.357 592.657 376.697 649.151 376.697 649.151L324.289 749.816C324.289 749.816 287.175 790.392 264.191 787.066C236.628 783.077 222.421 744.272 217.912 725.139C213.151 704.938 273.708 704.369 285.968 683.411Z" fill="#F5ED9C"/>
<path d="M239.914 763.443C248.808 752.633 238.816 714.598 255.621 716.627C271.536 718.549 307.68 708.069 321.974 724.093C333.401 736.905 314.886 768.057 314.886 768.057L277.703 822.02C277.703 822.02 249.046 838.731 229.144 829.156C205.277 817.674 190.193 786.024 184.89 771.206C179.29 755.56 231.019 774.253 239.914 763.443Z" fill="#C75151"/>
<path d="M192.849 823.54C200.954 830.068 191.388 847.795 186.744 863.509C182.346 878.393 214.96 884.693 198.302 900.213C184.983 912.621 167.943 900.505 151.024 898.76C128.14 896.401 138.096 890.584 132.111 868.758C127.733 852.793 108.737 850.607 120.611 830.915C134.851 807.301 142.086 846.926 156.153 839.831C171.006 832.339 184.745 817.012 192.849 823.54Z" fill="#C75151"/>
<path d="M262.715 687.393C268.925 692.127 272.511 708.475 266.471 723.973C260.751 738.651 274.132 740.879 257.676 758.235C244.519 772.112 245.015 761.46 230.535 762.701C210.948 764.379 208.45 759.661 206.032 740.249C204.263 726.049 186.168 727.015 198.998 706.567C214.384 682.045 219.797 696.442 232.926 687.412C246.789 677.877 256.504 682.659 262.715 687.393Z" fill="black"/>
<path d="M134.216 617.476C136.835 609.232 152.576 610.481 165.482 608.717C177.704 607.046 173.456 580.531 189.501 587.826C202.329 593.658 198.015 610.454 201.347 623.701C205.854 641.619 198.826 636.106 184.3 647.864C173.675 656.466 177.248 671.415 159.421 669.092C138.044 666.307 165.407 647.678 156.309 639.513C146.702 630.893 131.598 625.719 134.216 617.476Z" fill="black"/>
<path d="M152.791 913.662C143.214 911.076 134.721 903.746 127.347 891.813C119.974 879.881 114.011 863.792 109.397 844.646C100.175 806.378 96.5884 756.967 97.1574 706.955C97.726 656.986 102.439 606.715 109.673 566.825C113.292 546.87 117.521 529.633 122.128 516.379C124.432 509.751 126.799 504.214 129.18 499.869C131.591 495.469 133.865 492.576 135.865 490.948C157.355 473.446 185.343 452.744 214.907 438.518C244.587 424.236 275.024 416.884 301.821 424.821C326.013 431.986 343.342 452.098 357.588 477.908C367.647 496.133 375.81 516.476 383.741 536.241C387.083 544.57 390.384 552.796 393.768 560.718C394.772 563.067 395.37 566.63 395.274 571.586C395.18 576.48 394.418 582.394 392.993 589.225C390.143 602.886 384.738 619.758 377.269 638.656C362.34 676.428 339.368 721.773 312.871 764.77C286.355 807.797 256.458 848.23 227.747 876.324C213.384 890.378 199.492 901.17 186.634 907.699C173.748 914.243 162.408 916.259 152.791 913.662Z" stroke="black" stroke-width="10"/>
<path d="M440.635 372.471L440.634 372.471L440.634 372.47L436.086 365.768L432.164 372.734L432.164 372.735L432.164 372.735L432.16 372.741L432.141 372.775C432.123 372.807 432.095 372.857 432.056 372.924C431.979 373.058 431.862 373.261 431.707 373.528C431.396 374.061 430.932 374.846 430.33 375.838C429.126 377.822 427.374 380.624 425.196 383.872C420.82 390.396 414.808 398.593 408.133 405.567C401.316 412.69 394.417 417.88 388.347 419.391C385.469 420.108 382.939 419.958 380.626 418.939C378.271 417.903 375.645 415.746 372.999 411.581C353.666 381.149 353.396 342.662 373.961 312.831C386.432 294.74 405.121 279.273 420.934 268.242C428.801 262.753 435.874 258.419 440.972 255.461C443.095 254.229 444.873 253.237 446.221 252.502C446.884 253.074 447.664 253.754 448.55 254.535C451.646 257.269 456.014 261.241 461.076 266.172C471.218 276.054 484.053 289.697 495.011 304.872C506.027 320.127 514.828 336.502 517.432 351.885C519.978 366.921 516.647 381.006 503.173 392.768C495.373 399.577 487.911 401.55 481.12 401.076C474.153 400.589 467.371 397.482 461.236 393.216C455.125 388.967 449.954 383.774 446.28 379.583C444.454 377.5 443.023 375.693 442.056 374.419C441.573 373.782 441.207 373.28 440.967 372.944C440.847 372.777 440.759 372.651 440.704 372.571C440.69 372.552 440.679 372.535 440.669 372.521C440.659 372.507 440.651 372.495 440.645 372.487L440.636 372.474L440.635 372.471Z" fill="white" stroke="black" stroke-width="10"/>
<path d="M560.453 542.075C559.942 543.956 559.369 546.043 558.737 548.312C555.806 558.845 551.626 573.288 546.629 588.919C536.715 619.933 523.341 656.441 509.906 675.931C489.531 705.488 492.559 742.922 512.092 773.668C514.644 777.686 517.101 779.254 519.169 779.775C521.306 780.314 523.982 779.976 527.36 778.298C534.313 774.846 542.18 766.748 549.808 756.723C557.308 746.867 564.113 735.781 569.065 727.106C571.534 722.78 573.528 719.078 574.903 716.463C575.59 715.156 576.122 714.121 576.48 713.417C576.659 713.065 576.794 712.796 576.884 712.617C576.929 712.527 576.962 712.46 576.984 712.416L577.008 712.368L577.013 712.358L577.014 712.356L577.014 712.356L560.453 542.075ZM560.453 542.075C561.569 543.797 562.818 545.714 564.189 547.797C570.35 557.158 578.965 569.892 588.779 583.373C598.584 596.843 609.628 611.116 620.645 623.532C631.241 635.473 642.075 645.998 651.944 652.344C667.051 675.383 671.96 687.829 672.156 699.891C672.257 706.101 671.112 712.497 669.028 720.55C667.92 724.837 666.632 729.295 665.181 734.317C663.82 739.028 662.316 744.236 660.681 750.264C659.375 755.083 657.464 757.469 655.653 758.65C653.855 759.822 651.409 760.292 648.003 759.736C640.881 758.572 631.616 753.251 621.943 745.892C612.46 738.677 603.277 730.051 596.426 723.176C593.01 719.749 590.197 716.78 588.24 714.672C587.263 713.619 586.5 712.781 585.985 712.211C585.867 712.079 585.761 711.962 585.669 711.86C585.561 711.74 585.472 711.64 585.402 711.561C585.337 711.489 585.289 711.434 585.258 711.399L585.224 711.36L585.216 711.352L585.215 711.351L585.215 711.35L560.453 542.075Z" fill="white" stroke="black" stroke-width="10"/>
<path d="M712.257 239.393C724.495 249.071 739.124 261.875 749.667 274.949C751.954 281.516 754.397 288.033 756.815 294.479C762.836 310.535 768.693 326.154 771.548 341.029C775.517 361.708 773.296 379.236 757.91 392.669C750.663 398.995 743.301 399.582 735.817 396.976C727.945 394.235 719.889 387.888 712.453 380.121C705.093 372.433 698.727 363.766 694.176 356.965C691.909 353.576 690.111 350.678 688.883 348.635C688.27 347.614 687.8 346.808 687.487 346.263C687.33 345.99 687.213 345.783 687.136 345.647C687.098 345.579 687.069 345.528 687.052 345.496L687.033 345.462L687.03 345.457L687.029 345.456L687.029 345.456L684.128 340.207L679.519 343.9L679.519 343.901L679.517 343.902L679.517 343.903L679.499 343.916C679.481 343.931 679.451 343.955 679.408 343.988C679.323 344.055 679.19 344.158 679.012 344.295C678.655 344.567 678.117 344.972 677.418 345.48C676.017 346.495 673.974 347.917 671.444 349.512C666.359 352.717 659.425 356.546 651.857 359.216C644.24 361.904 636.37 363.278 629.245 362.028C622.351 360.818 615.783 357.098 610.483 348.756C600.26 332.662 600.12 317.293 605.642 302.917C611.268 288.269 622.845 274.547 636.215 262.63C649.526 250.766 664.263 240.998 675.725 234.178C681.444 230.775 686.321 228.122 689.759 226.324C690.87 225.742 691.831 225.251 692.62 224.852C693.651 225.562 694.99 226.495 696.579 227.625C700.546 230.447 706.065 234.496 712.257 239.393Z" fill="white" stroke="black" stroke-width="10"/>
<path d="M576.27 611.884C566.373 612.57 555.95 608.419 545.081 599.552C534.213 590.685 523.319 577.429 512.7 560.843C491.476 527.691 471.935 482.167 456.126 434.716C440.33 387.306 428.352 338.255 422.15 298.192C419.047 278.15 417.409 260.478 417.432 246.446C417.443 239.429 417.869 233.423 418.699 228.538C419.54 223.592 420.744 220.115 422.101 217.922C436.69 194.357 456.374 165.644 479.664 142.536C503.045 119.337 529.407 102.439 557.326 101.181C582.532 100.046 605.483 113.388 627.382 133.124C642.846 147.06 657.21 163.617 671.166 179.704C677.047 186.483 682.856 193.178 688.643 199.559C690.36 201.451 692.09 204.623 693.619 209.338C695.129 213.994 696.343 219.832 697.229 226.754C699.001 240.596 699.408 258.308 698.526 278.609C696.763 319.187 689.875 369.549 678.888 418.846C667.893 468.176 652.854 516.16 634.903 552.095C625.923 570.073 616.322 584.812 606.305 595.186C596.266 605.583 586.207 611.195 576.27 611.884Z" fill="white" stroke="black" stroke-width="10"/>
<ellipse cx="21.4647" cy="8.06415" rx="21.4647" ry="8.06415" transform="matrix(-0.581833 -0.813309 0.819816 -0.572627 627.639 175.02)" fill="black"/>
<ellipse cx="21.6816" cy="7.98475" rx="21.6816" ry="7.98475" transform="matrix(0.491671 -0.870781 -0.880892 -0.473317 477.134 196.15)" fill="black"/>
<path d="M492.026 330.404C493.874 344.98 522.568 360.84 527.779 375.909C532.369 389.179 481.026 459.379 492.031 444.776C483.592 455.973 451.56 438.895 451.007 427.979C450.208 412.214 436.662 375.87 436.662 375.87L419.398 308.981C419.398 308.981 424.842 270.409 443.959 262.73C466.885 253.521 499.253 270.707 512.795 277.719C527.095 285.124 490.178 315.829 492.026 330.404Z" fill="#C75151"/>
<path d="M545.154 533.73C546.596 537.994 561.075 557.715 558.351 562.237C555.549 566.891 540.409 579.964 546.91 573.559C541.925 578.47 521.925 578.363 521.358 575.032C520.539 570.221 509.723 557.919 509.723 557.919L499.825 539.066C499.825 539.066 478.921 517.113 506.958 500.87C520.969 492.752 532.002 472.242 552.682 498.106C558.204 505.012 543.711 529.467 545.154 533.73Z" fill="#F5ED9C"/>
<path d="M626.762 350.786C631.498 326.971 608.027 281.023 625.096 268.56C641.262 256.756 672.606 208.443 692.296 218.559C708.038 226.646 701.309 288.751 701.309 288.751L684.684 401.017C684.684 401.017 662.872 451.496 640.062 455.865C612.71 461.105 586.599 429.075 576.084 412.468C564.981 394.932 622.026 374.6 626.762 350.786Z" fill="#F5ED9C"/>
<path d="M609.397 441.475C614.27 428.352 592.394 395.672 608.939 392.097C624.608 388.711 655.342 366.993 674.087 377.464C689.075 385.837 681.76 421.33 681.76 421.33L664.258 484.482C664.258 484.482 642.637 509.643 620.699 507.099C594.39 504.049 569.789 479.068 559.933 466.797C549.527 453.841 604.524 454.599 609.397 441.475Z" fill="#C75151"/>
<path d="M584.562 513.655C594.355 517.176 591.109 537.055 591.857 553.425C592.565 568.928 625.448 564.222 614.777 584.334C606.246 600.414 586.181 594.534 569.622 598.415C547.223 603.665 554.731 594.914 541.94 576.243C532.584 562.586 513.917 566.729 518.703 544.238C524.442 517.266 544.231 552.349 555.206 541.046C566.795 529.111 574.769 510.135 584.562 513.655Z" fill="#C75151"/>
<path d="M606.088 362.15C613.505 364.593 622.237 378.871 621.595 395.492C620.987 411.234 634.36 408.965 624.482 430.747C616.584 448.162 613.57 437.934 600.291 443.839C582.329 451.827 578.426 448.186 569.795 430.63C563.482 417.788 546.696 424.616 552.138 401.097C558.663 372.893 568.486 384.73 577.942 371.904C587.927 358.362 598.671 359.706 606.088 362.15Z" fill="black"/>
<path d="M461.794 338.075C461.574 329.428 476.859 325.463 488.479 319.578C499.484 314.004 486.802 290.333 504.35 291.983C518.38 293.302 519.793 310.585 527.272 322.015C537.388 337.476 528.944 334.563 519.06 350.423C511.83 362.025 520.093 374.985 502.486 378.617C481.373 382.973 501.144 356.422 489.877 351.68C477.98 346.673 462.014 346.722 461.794 338.075Z" fill="black"/>
<path d="M576.163 611.92C566.266 612.606 555.843 608.455 544.974 599.589C534.106 590.722 523.212 577.465 512.593 560.879C491.369 527.727 471.828 482.203 456.019 434.753C440.223 387.343 428.245 338.292 422.043 298.229C418.94 278.187 417.302 260.514 417.325 246.482C417.336 239.466 417.762 233.459 418.592 228.575C419.433 223.629 420.637 220.151 421.994 217.958C436.583 194.394 456.267 165.68 479.556 142.572C502.938 119.373 529.3 102.476 557.219 101.218C582.425 100.082 605.376 113.425 627.275 133.161C642.739 147.097 657.103 163.654 671.059 179.741C676.94 186.52 682.749 193.215 688.536 199.595C690.253 201.488 691.983 204.659 693.512 209.374C695.022 214.031 696.235 219.869 697.122 226.79C698.893 240.632 699.301 258.345 698.419 278.646C696.656 319.223 689.768 369.585 678.781 418.882C667.786 468.212 652.747 516.197 634.796 552.132C625.816 570.11 616.215 584.849 606.198 595.223C596.158 605.619 586.1 611.232 576.163 611.92Z" stroke="black" stroke-width="10"/>
</svg>
