<svg width="1159" height="1204" viewBox="0 0 1159 1204" fill="none" xmlns="http://www.w3.org/2000/svg">
<path d="M649.467 839.883L652.054 843.962L653.887 842.943L654.469 841.057L649.467 839.883ZM649.467 839.883C652.054 843.962 652.053 843.963 652.052 843.963L652.05 843.964L652.043 843.969L652.015 843.984L651.914 844.04C651.825 844.089 651.695 844.161 651.526 844.254C651.186 844.44 650.689 844.712 650.049 845.058C648.768 845.752 646.914 846.746 644.606 847.956C639.993 850.374 633.553 853.662 626.248 857.139C611.782 864.024 593.41 871.899 579.084 875.006C559.789 879.189 546.788 880.285 533.632 878.306C521.179 876.432 508.843 871.818 491.233 865.231C490.607 864.997 489.974 864.76 489.334 864.521C449.144 849.495 420.497 825.502 406.789 787.226C402.014 773.891 400.032 757.872 399.216 745.394C398.805 739.113 398.685 733.645 398.667 729.743C398.658 727.791 398.675 726.227 398.694 725.146C398.704 724.605 398.714 724.185 398.722 723.897C398.724 723.836 398.725 723.782 398.727 723.733C398.729 723.666 398.731 723.609 398.732 723.565L398.735 723.476L398.736 723.451L398.736 723.444L398.736 723.441C398.736 723.44 398.736 723.44 403.936 723.452L398.736 723.44L398.9 718.965L403.746 718.673L403.748 718.673L403.752 718.673L403.754 718.673L403.758 718.673L403.768 718.672C403.794 718.67 403.841 718.667 403.908 718.661C404.042 718.65 404.258 718.632 404.546 718.602C405.124 718.542 405.988 718.438 407.073 718.268C409.25 717.925 412.271 717.318 415.61 716.27C422.38 714.146 429.914 710.387 434.762 703.854C439.62 697.308 441.107 689.151 441.237 682.238C441.301 678.837 441.034 675.874 440.752 673.769C440.611 672.719 440.468 671.891 440.362 671.339C440.31 671.063 440.267 670.856 440.239 670.726C440.23 670.686 440.223 670.654 440.218 670.628L440.209 670.588L440.205 670.57L440.204 670.568L440.204 670.566L440.203 670.564L440.203 670.563L439.085 665.86L444.254 664.747L445.288 669.409C444.254 664.747 444.254 664.747 444.255 664.747L444.257 664.747L444.262 664.745L444.283 664.741L444.361 664.724L444.659 664.661C444.919 664.606 445.3 664.525 445.791 664.423C446.772 664.218 448.189 663.926 449.944 663.575C453.451 662.872 458.316 661.929 463.744 660.969C474.488 659.07 487.828 657.033 497.162 656.764C521.902 656.052 542.764 658.213 562.17 664.406C581.582 670.602 599.236 680.738 617.714 695.61C631.421 706.641 641.081 715.11 648.246 725.129C655.471 735.232 659.964 746.624 663.988 763.266C667.278 776.868 664.697 796.611 661.583 812.302C659.999 820.281 658.225 827.454 656.848 832.63C656.158 835.221 655.567 837.317 655.146 838.77C654.936 839.496 654.768 840.062 654.652 840.45C654.594 840.644 654.549 840.793 654.518 840.895L654.483 841.012L654.473 841.044L654.47 841.053L654.469 841.056C654.469 841.057 654.469 841.057 649.467 839.883Z" fill="#F2CBCB" stroke="black" stroke-width="10"/>
<path d="M683.215 859.297L683.583 854.311L681.684 854.171L680.173 855.327L683.215 859.297ZM683.215 859.297C683.583 854.311 683.583 854.311 683.584 854.311L683.586 854.312L683.595 854.312L683.625 854.315L683.739 854.323C683.839 854.331 683.985 854.342 684.175 854.357C684.555 854.388 685.112 854.433 685.827 854.494C687.257 854.616 689.323 854.802 691.876 855.056C696.98 855.564 704.049 856.347 711.907 857.447C727.469 859.626 746.671 863.121 759.712 868.393C777.279 875.494 788.051 881.735 796.996 890.675C805.459 899.133 812.078 909.837 821.481 925.042C821.82 925.591 822.163 926.145 822.51 926.706C844.075 961.561 850.945 997.619 837.126 1037.39C832.317 1051.23 823.641 1065.78 816.326 1076.7C812.643 1082.2 809.254 1086.85 806.783 1090.14C805.546 1091.78 804.538 1093.09 803.835 1093.98C803.483 1094.43 803.208 1094.78 803.018 1095.02C802.923 1095.13 802.85 1095.23 802.799 1095.29L802.741 1095.36L802.724 1095.38L802.72 1095.39L802.718 1095.39C802.717 1095.39 802.717 1095.39 798.833 1092.24L802.717 1095.39L799.95 1098.8L796.22 1096.5L796.218 1096.5L796.215 1096.5L796.213 1096.5L796.21 1096.49L796.202 1096.49C796.182 1096.48 796.144 1096.46 796.089 1096.42C795.978 1096.36 795.8 1096.26 795.559 1096.12C795.076 1095.86 794.342 1095.47 793.395 1095.01C791.495 1094.1 788.771 1092.95 785.514 1091.99C778.929 1090.05 770.616 1089.03 762.566 1091.89C754.514 1094.76 748.115 1100.87 743.608 1106.6C741.386 1109.43 739.702 1112.07 738.578 1114C738.018 1114.96 737.601 1115.73 737.33 1116.25C737.195 1116.51 737.097 1116.71 737.035 1116.84C737.005 1116.9 736.983 1116.94 736.971 1116.97L736.963 1116.99L736.962 1116.99L736.961 1116.99L736.96 1116.99L736.96 1116.99L734.953 1121.29L730.551 1119.5L732.432 1114.87C730.551 1119.5 730.551 1119.5 730.55 1119.5L730.549 1119.5L730.544 1119.5L730.525 1119.49L730.454 1119.46L730.184 1119.35C729.947 1119.25 729.601 1119.11 729.157 1118.93C728.268 1118.56 726.987 1118.02 725.406 1117.35C722.247 1116.01 717.886 1114.13 713.078 1111.95C703.565 1107.63 691.951 1101.99 684.556 1097.08C664.971 1084.05 650.186 1070.73 639.095 1054.79C627.995 1038.85 620.785 1020.55 615.967 997.845C612.399 981.03 610.315 968.549 611.165 956.131C612.021 943.615 615.821 931.549 623.311 915.361C629.43 902.135 643.985 886.996 656.377 875.542C662.679 869.718 668.616 864.674 672.975 861.087C675.157 859.293 676.947 857.86 678.196 856.872C678.821 856.378 679.311 855.995 679.646 855.735C679.814 855.604 679.944 855.504 680.032 855.436L680.134 855.357L680.162 855.336L680.17 855.33L680.172 855.328C680.173 855.328 680.173 855.327 683.215 859.297Z" fill="#F2CBCB" stroke="black" stroke-width="10"/>
<path d="M625.727 997.997C655.802 969.933 664.881 961.842 672.751 926.414C678.401 900.977 672.579 854.961 672.579 854.961C672.579 854.961 628.822 825.486 601.117 822.717C565.015 819.109 550.639 823.883 516.947 840.526C472.372 862.545 448.794 887.183 429.564 929.654C422.547 945.152 415.417 976.994 415.417 976.994C415.417 976.994 439.293 979.462 449.837 994.236C460.508 1009.19 451.936 1029.99 451.936 1029.99C451.936 1029.99 488.017 1042.84 517.417 1043.09C559.766 1043.44 594.51 1027.13 625.727 997.997Z" fill="#D9D9D9"/>
<path d="M667.774 857.687C667.917 858.96 668.108 860.739 668.32 862.916C668.772 867.575 669.317 874.048 669.687 881.301C670.435 895.954 670.436 913.264 667.759 925.313C663.894 942.713 659.835 952.928 653.322 962.178C646.787 971.458 637.67 979.965 622.985 993.666L622.136 994.459C591.641 1022.91 558.108 1038.53 517.372 1038.19C503.312 1038.07 487.431 1034.92 474.883 1031.71C468.648 1030.12 463.315 1028.53 459.546 1027.35C459.106 1027.21 458.688 1027.08 458.292 1026.95C458.914 1024.67 459.575 1021.71 459.961 1018.34C460.83 1010.75 460.377 1000.41 454.031 991.52C447.838 982.842 437.996 978.065 430.293 975.461C427.015 974.353 423.993 973.594 421.583 973.085C421.593 973.043 421.603 973.001 421.613 972.959C422.384 969.76 423.485 965.336 424.801 960.436C427.461 950.537 430.915 939.035 434.25 931.67C443.703 910.792 454.123 894.519 467.506 880.798C480.89 867.076 497.423 855.716 519.346 844.886C536.192 836.565 547.731 831.463 559.397 828.79C570.949 826.142 582.936 825.813 600.678 827.586C613.372 828.855 630.409 836.427 644.81 844.141C651.891 847.934 658.129 851.646 662.597 854.412C664.791 855.769 666.554 856.896 667.774 857.687Z" fill="#F2CBCB" stroke="black" stroke-width="10"/>
<path d="M671.211 834.754L667.65 838.494L669.146 839.762L671.226 839.614L671.211 834.754ZM671.211 834.754C667.65 838.494 667.65 838.494 667.649 838.493L667.647 838.492L667.641 838.487L667.619 838.468L667.536 838.397C667.464 838.336 667.359 838.246 667.222 838.128C666.947 837.892 666.546 837.547 666.032 837.1C665.006 836.207 663.529 834.911 661.72 833.287C658.103 830.042 653.144 825.482 647.78 820.219C637.156 809.797 624.557 796.255 617.854 784.624C608.826 768.959 604.515 757.796 603.327 745.409C602.203 733.685 603.927 721.097 606.387 703.128C606.475 702.489 606.563 701.843 606.653 701.191C612.26 660.182 629.918 626.265 665.922 600.58C678.465 591.632 694.453 584.219 707.085 579.09C713.443 576.509 719.036 574.473 723.044 573.08C725.05 572.383 726.662 571.846 727.778 571.482C728.337 571.3 728.772 571.16 729.07 571.066C729.219 571.018 729.334 570.982 729.414 570.957L729.506 570.929L729.532 570.921L729.539 570.918L729.542 570.918C729.543 570.917 729.544 570.917 730.801 575.542L729.544 570.917L734.181 569.484L735.667 573.685L735.668 573.686L735.669 573.689L735.67 573.692L735.671 573.694L735.674 573.704C735.679 573.718 735.687 573.74 735.698 573.769C735.704 573.785 735.711 573.803 735.719 573.824C735.763 573.94 735.836 574.125 735.937 574.37C736.14 574.862 736.458 575.593 736.899 576.497C737.785 578.31 739.149 580.779 741.044 583.376C744.887 588.641 750.599 594.008 758.506 596.01C766.429 598.016 775.182 596.459 782.323 594.135C785.836 592.992 788.818 591.709 790.914 590.715C791.959 590.22 792.775 589.8 793.317 589.512C793.588 589.368 793.79 589.257 793.917 589.186C793.981 589.15 794.026 589.125 794.051 589.11L794.069 589.1L794.071 589.099L794.073 589.098L794.075 589.097C794.076 589.096 794.077 589.096 794.076 589.097L798.636 586.445L801.044 590.642L796.505 593.209C801.044 590.642 801.044 590.642 801.045 590.642L801.045 590.644L801.048 590.648L801.058 590.665L801.094 590.728L801.232 590.971C801.352 591.182 801.529 591.493 801.754 591.892C802.205 592.692 802.852 593.848 803.643 595.282C805.225 598.15 807.387 602.14 809.703 606.623C814.288 615.498 819.65 626.63 822.213 634.827C829.005 656.555 831.893 675.851 830.277 695.277C828.661 714.71 822.561 733.971 811.794 755.635C803.807 771.705 797.464 783.276 788.916 793.177C780.295 803.161 769.681 811.172 753.553 820.62C740.371 828.343 719.437 833.016 702.539 835.786C693.946 837.195 686.135 838.15 680.474 838.753C677.642 839.055 675.342 839.269 673.744 839.408C672.946 839.478 672.322 839.529 671.895 839.563C671.682 839.579 671.518 839.592 671.405 839.6L671.276 839.61L671.241 839.613L671.231 839.613L671.228 839.613C671.227 839.614 671.226 839.614 671.211 834.754Z" fill="#F2CBCB" stroke="black" stroke-width="10"/>
<path d="M674.821 848.629L670.196 846.948L669.361 849.095L670.39 851.083L674.821 848.629ZM674.821 848.629C670.196 846.948 670.197 846.947 670.197 846.946L670.198 846.944L670.201 846.936L670.212 846.909L670.252 846.805C670.287 846.715 670.339 846.584 670.407 846.413C670.543 846.071 670.742 845.57 671.001 844.928C671.519 843.644 672.276 841.793 673.237 839.509C675.159 834.943 677.903 828.634 681.197 821.657C687.72 807.842 696.625 790.909 705.728 779.879C717.986 765.026 727.438 756.295 739.143 749.673C750.236 743.397 763.178 739.139 781.793 733.013C782.439 732.801 783.092 732.586 783.752 732.369C825.941 718.48 865.376 718.012 903.272 736.865C916.497 743.444 929.445 753.662 938.97 762.081C943.762 766.316 947.746 770.149 950.537 772.928C951.933 774.318 953.033 775.446 953.787 776.231C954.165 776.624 954.456 776.931 954.655 777.142C954.755 777.248 954.832 777.33 954.884 777.386L954.946 777.452L954.963 777.471L954.968 777.476L954.97 777.478C954.97 777.479 954.971 777.479 951.274 780.98L954.971 777.479L958.432 781.217L954.475 784.702L954.474 784.702L954.471 784.705L954.47 784.706L954.467 784.708L954.457 784.717C954.438 784.735 954.403 784.767 954.353 784.812C954.253 784.904 954.095 785.051 953.888 785.25C953.473 785.65 952.863 786.257 952.128 787.046C950.65 788.632 948.702 790.918 946.819 793.709C942.977 799.4 939.823 806.562 940.615 813.936C941.411 821.353 945.915 827.979 950.735 833.005C953.093 835.463 955.405 837.411 957.124 838.741C957.981 839.404 958.683 839.907 959.159 840.238C959.397 840.403 959.578 840.524 959.694 840.601C959.752 840.639 959.793 840.665 959.816 840.681L959.833 840.692L959.835 840.693L959.837 840.694L959.838 840.695L959.839 840.695L964.529 843.661L960.848 848.107L957.076 844.974C960.848 848.107 960.848 848.107 960.848 848.107L960.847 848.109L960.843 848.113L960.83 848.129L960.78 848.189L960.59 848.417C960.424 848.616 960.181 848.908 959.866 849.282C959.238 850.031 958.328 851.11 957.194 852.439C954.927 855.095 951.76 858.756 948.161 862.775C941.032 870.735 931.965 880.373 924.811 886.284C905.816 901.976 887.878 913.203 868.268 920.66C848.66 928.116 827.632 931.707 802.557 932.433C783.907 932.973 770.352 932.854 757.67 930.119C744.877 927.36 733.275 922.013 718.265 912.597C705.993 904.899 693.967 889.182 685.25 876.038C680.819 869.356 677.113 863.133 674.515 858.583C673.215 856.305 672.19 854.442 671.486 853.142C671.135 852.493 670.864 851.984 670.679 851.634C670.587 851.46 670.516 851.325 670.467 851.232L670.411 851.125L670.396 851.096L670.392 851.087L670.391 851.085C670.39 851.084 670.39 851.083 674.821 848.629Z" fill="#F2CBCB" stroke="black" stroke-width="10"/>
<path d="M692.482 866.843C688.548 860.705 687.441 858.864 680.511 856.339C675.536 854.526 665.49 854.031 665.49 854.031C665.49 854.031 656.445 860.662 654.056 865.38C650.944 871.529 651.009 874.18 652.308 880.573C654.026 889.03 657.664 893.929 665.332 898.656C668.13 900.382 674.354 902.661 674.354 902.661C674.354 902.661 676.429 898.597 680.221 897.25C684.058 895.887 687.867 898.056 687.867 898.056C687.867 898.056 692.92 892.213 694.89 887.118C697.727 879.779 696.565 873.215 692.482 866.843Z" fill="#FAA6A6"/>
<path d="M626.73 854.992C634.284 857.524 636.486 858.321 644.191 856.587C649.722 855.343 658.753 850.464 658.753 850.464C658.753 850.464 662.101 840.782 660.98 836.008C659.519 829.787 657.671 827.839 652.226 823.74C645.023 818.317 638.563 816.557 628.731 817.03C625.144 817.203 618.216 818.752 618.216 818.752C618.216 818.752 619.165 822.873 616.794 825.86C614.394 828.884 609.631 829.254 609.631 829.254C609.631 829.254 609.205 836.26 610.944 841.097C613.448 848.064 618.89 852.363 626.73 854.992Z" fill="#FAA6A6"/>
<path d="M653.287 880.779C659.483 875.289 661.351 873.704 663.092 866.901C664.341 862.016 663.359 853.247 663.359 853.247C663.359 853.247 654.642 847.8 649.055 847.388C641.776 846.852 638.85 847.825 631.972 851.148C622.871 855.544 618.002 860.352 613.937 868.549C612.453 871.541 610.878 877.656 610.878 877.656C610.878 877.656 615.692 878.026 617.76 880.805C619.853 883.617 618.033 887.628 618.033 887.628C618.033 887.628 625.269 889.931 631.209 889.854C639.765 889.743 646.855 886.478 653.287 880.779Z" fill="#D9D9D9"/>
<path d="M653.287 880.779C659.483 875.289 661.351 873.704 663.092 866.901C664.341 862.016 663.359 853.247 663.359 853.247C663.359 853.247 654.642 847.8 649.055 847.388C641.776 846.852 638.85 847.825 631.972 851.148C622.871 855.544 618.002 860.352 613.937 868.549C612.453 871.541 610.878 877.656 610.878 877.656C610.878 877.656 615.692 878.026 617.76 880.805C619.853 883.617 618.033 887.628 618.033 887.628C618.033 887.628 625.269 889.931 631.209 889.854C639.765 889.743 646.855 886.478 653.287 880.779Z" fill="#FAA6A6"/>
<path d="M651.714 824.174C650.489 831.542 650.068 833.714 653.526 839.527C656.009 843.701 663.168 849.392 663.168 849.392C663.168 849.392 674.41 848.398 679.389 845.57C685.877 841.884 687.625 839.558 690.988 833.35C695.437 825.138 696.043 818.996 693.526 810.892C692.608 807.935 689.509 802.704 689.509 802.704C689.509 802.704 685.207 805.13 681.466 804.308C677.68 803.476 676.307 799.606 676.307 799.606C676.307 799.606 668.579 802.01 663.657 805.383C656.567 810.242 652.985 816.526 651.714 824.174Z" fill="#FAA6A6"/>
<path d="M686.282 830.361C678.454 832.944 676.05 833.737 671.126 839.341C667.542 843.419 663.839 852.028 663.839 852.028C663.839 852.028 668.403 860.617 672.919 863.236C678.805 866.649 681.785 866.907 689.326 866.542C699.304 866.061 705.912 863.501 713.592 857.445C716.395 855.235 720.89 850.135 720.89 850.135C720.89 850.135 717.006 847.863 716.692 844.433C716.374 840.961 719.989 837.93 719.989 837.93C719.989 837.93 715.053 832.88 709.985 830.577C702.684 827.261 694.994 827.487 686.602 830.256L686.282 830.361Z" fill="#FAA6A6"/>
<line y1="-5" x2="164.776" y2="-5" transform="matrix(-0.998092 0.0617462 0.00308761 -0.999995 833.447 832.813)" stroke="#F5ED9C" stroke-width="10"/>
<ellipse cx="831.763" cy="833.785" rx="12.5042" ry="11.7052" transform="rotate(161.181 831.763 833.785)" fill="#F5ED9C"/>
<line y1="-5" x2="148.141" y2="-5" transform="matrix(-0.924408 -0.329016 0.388474 -0.941143 806.498 893.322)" stroke="#F5ED9C" stroke-width="10"/>
<ellipse rx="11.1328" ry="11.806" transform="matrix(-0.999331 -0.0365633 0.102332 -0.99475 804.762 893.638)" fill="#F5ED9C"/>
<line y1="-5" x2="199.446" y2="-5" transform="matrix(-0.796504 -0.566331 0.725986 -0.728955 828.323 963.25)" stroke="#F5ED9C" stroke-width="10"/>
<ellipse rx="15.1801" ry="13.5913" transform="matrix(-0.936749 -0.350001 0.434414 -0.900713 825.963 962.835)" fill="#F5ED9C"/>
<line y1="-5" x2="167.474" y2="-5" transform="matrix(-0.549815 -0.809746 0.899787 -0.486819 759.811 977.652)" stroke="#F5ED9C" stroke-width="10"/>
<ellipse rx="12.6599" ry="12.4951" transform="matrix(-0.772178 -0.635406 0.694411 -0.719579 758.04 976.715)" fill="#F5ED9C"/>
<line y1="-5" x2="205.915" y2="-5" transform="matrix(-0.279154 -0.946708 0.973603 -0.275702 728.996 1037.35)" stroke="#F5ED9C" stroke-width="10"/>
<ellipse rx="15.4227" ry="16.974" transform="matrix(-0.56582 -0.824529 0.848805 -0.528706 727.2 1035.7)" fill="#F5ED9C"/>
<line y1="-5" x2="165.293" y2="-5" transform="matrix(-0.0161502 -0.999743 0.998892 -0.0494384 666.158 1008.03)" stroke="#F5ED9C" stroke-width="10"/>
<ellipse rx="12.364" ry="13.7964" transform="matrix(-0.32499 -0.945717 0.945857 -0.324584 665.124 1006.39)" fill="#F5ED9C"/>
<line y1="-5" x2="150.695" y2="-5" transform="matrix(0.588219 -0.831423 0.711336 0.653845 576.169 971.557)" stroke="#F5ED9C" stroke-width="10"/>
<ellipse rx="11.5894" ry="8.54588" transform="matrix(0.397271 -0.917702 0.949919 0.312496 576.609 969.848)" fill="#F5ED9C"/>
<line y1="-5" x2="166.028" y2="-5" transform="matrix(0.821085 -0.601068 0.483794 0.840638 516.397 950.061)" stroke="#F5ED9C" stroke-width="10"/>
<ellipse rx="12.7445" ry="9.79005" transform="matrix(0.66163 -0.74983 0.802204 0.59705 517.43 948.415)" fill="#F5ED9C"/>
<ellipse rx="21.5574" ry="13.707" transform="matrix(0.938778 -0.427038 0.417325 0.871167 660.503 849.72)" fill="#F5ED9C"/>
<line y1="-5" x2="207.328" y2="-5" transform="matrix(0.252315 -0.980924 0.948571 0.263194 607.604 1047.22)" stroke="#F5ED9C" stroke-width="10"/>
<ellipse rx="15.725" ry="14.8309" transform="matrix(-0.012982 -0.999916 0.99798 -0.0635247 607.096 1044.85)" fill="#F5ED9C"/>
<path d="M320.734 589.438L319.601 584.742L317.537 585.115L316.378 586.713L320.734 589.438ZM320.734 589.438C319.601 584.742 319.602 584.742 319.603 584.742L319.605 584.741L319.614 584.74L319.644 584.734L319.759 584.714C319.859 584.696 320.005 584.67 320.195 584.637C320.576 584.57 321.135 584.473 321.853 584.352C323.288 584.108 325.364 583.765 327.939 583.365C333.086 582.564 340.242 581.529 348.278 580.595C364.192 578.745 384.122 577.216 398.684 578.898C418.297 581.162 430.956 584.319 442.771 590.436C453.954 596.226 464.142 604.574 478.686 616.489C479.203 616.913 479.725 617.341 480.254 617.774C513.448 644.961 532.824 676.913 533.451 717.565C533.67 731.727 530.378 747.529 527.125 759.604C525.488 765.681 523.838 770.895 522.596 774.594C521.975 776.445 521.455 777.92 521.088 778.937C520.904 779.446 520.759 779.84 520.658 780.11C520.637 780.167 520.618 780.218 520.601 780.264C520.577 780.327 520.558 780.38 520.542 780.421L520.51 780.505L520.502 780.528L520.499 780.535L520.498 780.537C520.498 780.538 520.497 780.539 515.58 778.85L520.497 780.539L518.899 784.721L514.218 783.434L514.216 783.433L514.213 783.432L514.21 783.432L514.207 783.431L514.196 783.428C514.172 783.421 514.126 783.41 514.061 783.393C513.93 783.36 513.72 783.308 513.437 783.244C512.872 783.114 512.02 782.933 510.938 782.745C508.767 782.367 505.712 781.967 502.213 781.881C495.12 781.708 486.776 782.836 480.08 787.456C473.37 792.085 469.331 799.325 466.978 805.827C465.82 809.026 465.117 811.917 464.705 814C464.499 815.039 464.368 815.869 464.29 816.426C464.25 816.704 464.224 816.913 464.209 817.046C464.204 817.086 464.2 817.119 464.197 817.145L464.193 817.186L464.191 817.204L464.191 817.207L464.191 817.209L464.19 817.211L464.19 817.211L463.731 822.024L458.48 821.41L459.004 816.664C458.48 821.41 458.479 821.41 458.479 821.41L458.477 821.41L458.471 821.409L458.45 821.406L458.371 821.397L458.069 821.361C457.805 821.329 457.418 821.282 456.92 821.221C455.926 821.098 454.49 820.918 452.716 820.684C449.169 820.218 444.26 819.541 438.813 818.699C428.03 817.03 414.746 814.655 405.825 811.899C382.178 804.592 363.128 795.817 346.758 783.695C330.382 771.568 316.941 756.279 304.249 736.241C294.833 721.378 288.421 710.246 284.871 698.451C281.292 686.557 280.714 674.325 282.273 657.274C283.547 643.338 292.359 625.484 300.368 611.636C304.441 604.595 308.434 598.378 311.408 593.922C312.896 591.692 314.132 589.899 314.999 588.66C315.432 588.04 315.774 587.558 316.008 587.229C316.126 587.064 316.217 586.937 316.279 586.851L316.351 586.751L316.37 586.724L316.376 586.717L316.377 586.714C316.378 586.713 316.378 586.713 320.734 589.438Z" fill="#F2CBCB" stroke="black" stroke-width="10"/>
<path d="M295.053 560.175L293.096 564.776L294.848 565.521L296.651 564.914L295.053 560.175ZM295.053 560.175C293.096 564.776 293.096 564.775 293.095 564.775L293.093 564.774L293.085 564.771L293.057 564.759L292.952 564.714C292.86 564.675 292.726 564.617 292.551 564.541C292.201 564.39 291.688 564.167 291.031 563.879C289.716 563.301 287.821 562.46 285.486 561.395C280.819 559.268 274.381 556.247 267.298 552.671C253.271 545.588 236.222 536.086 225.579 526.889C211.242 514.5 203.06 505.118 197.477 493.771C192.194 483.034 189.382 470.767 185.387 453.342C185.242 452.713 185.097 452.078 184.949 451.436C175.782 411.487 180.91 375.141 206.82 341.953C215.836 330.404 228.742 319.435 239.188 311.456C244.448 307.439 249.158 304.125 252.557 301.812C254.258 300.655 255.633 299.747 256.588 299.125C257.065 298.814 257.438 298.575 257.694 298.411C257.822 298.329 257.921 298.267 257.989 298.224L258.068 298.174L258.09 298.16L258.096 298.156L258.098 298.154C258.099 298.154 258.1 298.153 260.76 302.389L258.1 298.153L261.819 295.819L264.608 299.198L264.609 299.2L264.611 299.203L264.613 299.205L264.615 299.207L264.621 299.214C264.636 299.232 264.665 299.266 264.707 299.314C264.79 299.411 264.926 299.565 265.111 299.769C265.483 300.178 266.052 300.782 266.802 301.517C268.306 302.991 270.513 304.963 273.285 306.922C278.892 310.885 286.432 314.532 294.976 314.414C303.523 314.296 311.55 310.582 317.666 306.607C320.682 304.646 323.128 302.69 324.812 301.231C325.652 300.504 326.296 299.905 326.721 299.498C326.933 299.295 327.09 299.14 327.188 299.042C327.237 298.993 327.272 298.958 327.291 298.938L327.305 298.924L327.306 298.923L327.308 298.921L327.309 298.919L327.31 298.919L330.595 295.5L334.185 298.613L330.911 302.39C334.185 298.613 334.185 298.613 334.186 298.613L334.187 298.614L334.191 298.618L334.206 298.631L334.264 298.681L334.484 298.873C334.677 299.041 334.959 299.288 335.32 299.605C336.042 300.24 337.083 301.16 338.362 302.304C340.92 304.592 344.44 307.784 348.287 311.4C355.898 318.555 365.075 327.635 370.488 334.675C384.824 353.321 394.522 370.699 399.879 389.361C405.241 408.038 406.164 427.679 403.399 450.727C401.352 467.794 399.298 480.28 394.489 491.76C389.641 503.331 382.151 513.527 369.84 526.433C359.781 536.977 341.121 546.612 325.696 553.456C317.852 556.936 310.606 559.795 305.322 561.784C302.679 562.779 300.522 563.558 299.021 564.089C298.27 564.355 297.683 564.56 297.281 564.698C297.08 564.768 296.925 564.821 296.82 564.857L296.698 564.898L296.665 564.909L296.655 564.912L296.653 564.913C296.652 564.914 296.651 564.914 295.053 560.175Z" fill="#F2CBCB" stroke="black" stroke-width="10"/>
<path d="M394.21 447.435C356.689 464.297 345.486 469.026 326.608 500.022C313.054 522.277 303.721 567.711 303.721 567.711C303.721 567.711 335.63 609.725 360.961 621.283C393.969 636.344 409.117 636.463 446.377 631.578C495.672 625.116 525.937 609.402 557.84 575.404C569.481 562.998 586.502 535.158 586.502 535.158C586.502 535.158 564.698 525.12 559.484 507.735C554.206 490.138 569.029 473.219 569.029 473.219C569.029 473.219 539.023 449.416 511.274 439.696C471.305 425.696 433.154 429.933 394.21 447.435Z" fill="#D9D9D9"/>
<path d="M309.148 566.68C309.424 565.429 309.817 563.684 310.319 561.554C311.394 556.998 312.966 550.696 314.955 543.711C318.975 529.6 324.557 513.216 330.978 502.674C340.249 487.451 347.386 479.092 356.536 472.437C365.715 465.761 377.088 460.651 395.408 452.418L396.467 451.943C434.512 434.845 471.291 430.877 509.738 444.344C523.008 448.992 537.023 457.099 547.866 464.181C553.254 467.7 557.79 470.922 560.976 473.26C561.347 473.533 561.7 473.794 562.033 474.041C560.71 475.996 559.127 478.592 557.676 481.656C554.405 488.559 551.499 498.49 554.637 508.953C557.7 519.165 565.475 526.861 571.926 531.81C574.671 533.917 577.287 535.61 579.404 536.87C579.381 536.906 579.358 536.942 579.335 536.978C577.573 539.758 575.105 543.59 572.277 547.804C566.566 556.315 559.586 566.088 554.055 571.984C538.372 588.696 523.26 600.738 506.166 609.408C489.071 618.079 469.757 623.499 445.512 626.677C426.882 629.12 414.315 630.227 402.41 628.994C390.621 627.773 379.169 624.218 362.948 616.816C351.341 611.52 337.658 598.857 326.515 586.91C321.037 581.036 316.33 575.509 312.992 571.45C311.354 569.458 310.049 567.823 309.148 566.68Z" fill="#F2CBCB" stroke="black" stroke-width="10"/>
<path d="M298.498 587.278L303.075 584.887L302.068 583.204L300.051 582.674L298.498 587.278ZM298.498 587.278C303.075 584.887 303.075 584.887 303.075 584.888L303.077 584.89L303.081 584.897L303.096 584.922L303.151 585.015C303.2 585.097 303.27 585.216 303.362 585.372C303.546 585.683 303.814 586.14 304.156 586.728C304.84 587.905 305.819 589.608 307.008 591.728C309.385 595.967 312.607 601.883 315.987 608.595C322.681 621.887 330.238 638.769 332.831 651.941C336.323 669.68 336.803 681.638 333.931 693.745C331.212 705.206 325.52 716.565 317.395 732.779C317.106 733.355 316.814 733.938 316.519 734.527C297.983 771.534 270.327 797.942 227.963 810.64C213.203 815.063 195.679 816.923 182.068 817.702C175.217 818.094 169.266 818.218 165.023 818.243C162.9 818.255 161.201 818.243 160.026 818.228C159.439 818.221 158.983 818.212 158.67 818.205C158.513 818.202 158.392 818.199 158.309 818.197L158.213 818.195L158.186 818.194L158.178 818.194L158.175 818.194C158.174 818.194 158.173 818.194 158.475 813.41L158.173 818.194L153.321 818.054L153.27 813.598L153.27 813.597L153.27 813.593L153.27 813.591L153.27 813.588L153.27 813.578C153.269 813.563 153.269 813.54 153.268 813.509C153.267 813.492 153.266 813.472 153.266 813.45C153.261 813.326 153.252 813.128 153.236 812.863C153.202 812.332 153.137 811.537 153.011 810.539C152.757 808.537 152.263 805.76 151.307 802.69C149.368 796.468 145.692 789.545 138.854 785.099C132.002 780.644 123.214 779.295 115.705 779.191C112.011 779.14 108.774 779.392 106.47 779.657C105.322 779.788 104.414 779.922 103.808 780.02C103.505 780.069 103.278 780.109 103.134 780.135C103.063 780.148 103.012 780.158 102.983 780.163L102.963 780.167L102.961 780.168L102.958 780.168L102.956 780.169C102.955 780.169 102.954 780.169 102.956 780.169L97.7842 781.207L96.8581 776.458L101.983 775.493C96.8581 776.458 96.858 776.458 96.8579 776.457L96.8577 776.456L96.8566 776.451L96.8529 776.432L96.8391 776.36L96.7865 776.086C96.7407 775.847 96.6741 775.496 96.5897 775.045C96.421 774.143 96.1811 772.84 95.8948 771.227C95.3226 768.002 94.5638 763.529 93.8176 758.538C92.3406 748.659 90.8563 736.392 91.0751 727.806C91.655 705.049 95.1455 685.852 102.942 667.986C110.741 650.114 122.727 633.85 139.908 616.818C152.651 604.184 162.388 595.277 173.673 588.663C185.054 581.993 197.685 577.835 215.999 574.094C230.967 571.037 252.289 573.367 269.178 576.195C277.766 577.634 285.467 579.25 291.02 580.505C293.798 581.133 296.044 581.672 297.601 582.056C298.38 582.248 298.986 582.4 299.401 582.506C299.608 582.559 299.768 582.6 299.877 582.629L300.003 582.661L300.037 582.67L300.047 582.673L300.05 582.673C300.051 582.674 300.051 582.674 298.498 587.278Z" fill="#F2CBCB" stroke="black" stroke-width="10"/>
<path d="M299.556 572.98L303.391 576.064L304.875 574.301L304.543 572.087L299.556 572.98ZM299.556 572.98C303.391 576.064 303.391 576.064 303.391 576.065L303.389 576.067L303.384 576.073L303.364 576.096L303.293 576.181C303.23 576.255 303.139 576.362 303.019 576.502C302.781 576.783 302.431 577.192 301.978 577.716C301.074 578.764 299.761 580.272 298.114 582.124C294.822 585.826 290.189 590.912 284.82 596.453C274.19 607.426 260.298 620.581 248.124 628.085C231.73 638.19 219.966 643.405 206.751 645.897C194.226 648.259 180.603 648.115 161.007 647.908C160.327 647.901 159.64 647.893 158.945 647.886C114.531 647.423 77.0535 635.144 47.2646 605.074C36.8692 594.581 27.9096 580.733 21.6094 569.691C18.4402 564.137 15.9052 559.223 14.1599 555.693C13.2869 553.927 12.6101 552.504 12.149 551.517C11.9185 551.024 11.7418 550.639 11.6214 550.375C11.5612 550.243 11.5151 550.141 11.4834 550.07L11.4465 549.988L11.4363 549.965L11.4332 549.958L11.4321 549.956C11.4318 549.955 11.4315 549.954 16.0601 547.834L11.4315 549.954L9.36105 545.3L14.2311 543.278L14.2317 543.278L14.2349 543.276L14.2372 543.275L14.2401 543.274L14.2524 543.269C14.2765 543.258 14.32 543.24 14.3819 543.212C14.5058 543.158 14.7026 543.07 14.9631 542.948C15.4848 542.704 16.2581 542.326 17.2088 541.816C19.1185 540.792 21.7007 539.256 24.3833 537.222C29.8551 533.074 35.1506 527.313 36.7803 520.078C38.4194 512.801 36.2937 505.075 33.3523 498.764C31.9133 495.676 30.3537 493.086 29.1554 491.273C28.5583 490.369 28.0563 489.666 27.7119 489.2C27.5399 488.967 27.4076 488.793 27.323 488.684C27.2807 488.629 27.2503 488.591 27.2329 488.568L27.2205 488.553L27.2189 488.551L27.2176 488.549L27.2167 488.548L27.216 488.547L23.7339 484.227L28.6518 481.207L31.2114 485.388C28.6518 481.207 28.6521 481.206 28.6525 481.206L28.654 481.205L28.6588 481.202L28.6763 481.191L28.7425 481.151L28.9959 480.996C29.2173 480.861 29.5421 480.664 29.9603 480.411C30.7964 479.905 32.0062 479.177 33.5083 478.285C36.5111 476.502 40.6897 474.058 45.393 471.415C54.7078 466.181 66.3991 459.982 75.0779 456.696C98.1191 447.97 118.72 443.13 139.687 442.397C160.652 441.665 181.715 445.049 205.684 452.451C223.51 457.956 236.302 462.441 247.424 469.121C258.643 475.859 267.9 484.663 279.07 498.418C288.203 509.663 294.516 528.419 298.526 543.673C300.565 551.427 302.065 558.512 303.057 563.658C303.553 566.233 303.922 568.328 304.169 569.784C304.292 570.513 304.384 571.082 304.447 571.472C304.478 571.667 304.501 571.818 304.517 571.921L304.535 572.041L304.54 572.073L304.542 572.082L304.542 572.085C304.542 572.086 304.543 572.087 299.556 572.98Z" fill="#F2CBCB" stroke="black" stroke-width="10"/>
<path d="M288.715 550.043C290.458 557.122 290.913 559.222 296.657 563.847C300.781 567.168 310.131 570.877 310.131 570.877C310.131 570.877 320.832 567.519 324.615 563.823C329.544 559.008 330.338 556.477 331.171 550.007C332.272 541.447 330.409 535.637 324.676 528.689C322.584 526.153 317.429 521.988 317.429 521.988C317.429 521.988 314.153 525.165 310.13 525.217C306.058 525.269 303.152 521.988 303.152 521.988C303.152 521.988 296.485 525.888 292.976 530.075C287.923 536.107 286.906 542.695 288.715 550.043Z" fill="#FAA6A6"/>
<path d="M347.129 582.472C340.796 577.638 338.968 576.173 331.116 575.329C325.479 574.722 315.357 576.427 315.357 576.427C315.357 576.427 309.065 584.511 308.586 589.392C307.962 595.752 309.083 598.191 312.915 603.827C317.983 611.284 323.53 615.034 332.989 617.758C336.44 618.752 343.497 619.521 343.497 619.521C343.497 619.521 343.928 615.313 347.136 613.251C350.384 611.163 355.011 612.349 355.011 612.349C355.011 612.349 357.674 605.855 357.589 600.716C357.466 593.313 353.702 587.489 347.129 582.472Z" fill="#FAA6A6"/>
<path d="M330.311 549.496C322.675 552.694 320.395 553.591 316.553 559.469C313.794 563.69 311.895 572.307 311.895 572.307C311.895 572.307 318.389 580.275 323.544 582.467C330.262 585.323 333.344 585.346 340.927 584.419C350.96 583.193 357.119 580.213 363.612 573.766C365.981 571.413 369.445 566.133 369.445 566.133C369.445 566.133 365.007 564.229 363.946 560.932C362.872 557.595 365.889 554.386 365.889 554.386C365.889 554.386 359.782 549.872 354.135 548.028C346.001 545.373 338.236 546.177 330.311 549.496Z" fill="#D9D9D9"/>
<path d="M330.311 549.496C322.675 552.694 320.395 553.591 316.553 559.469C313.794 563.69 311.895 572.307 311.895 572.307C311.895 572.307 318.389 580.275 323.544 582.467C330.262 585.323 333.344 585.346 340.927 584.419C350.96 583.193 357.119 580.213 363.612 573.766C365.981 571.413 369.445 566.133 369.445 566.133C369.445 566.133 365.007 564.229 363.946 560.932C362.872 557.595 365.889 554.386 365.889 554.386C365.889 554.386 359.782 549.872 354.135 548.028C346.001 545.373 338.236 546.177 330.311 549.496Z" fill="#FAA6A6"/>
<path d="M313.539 603.582C317.076 597.003 318.175 595.083 316.777 588.465C315.773 583.714 310.832 576.018 310.832 576.018C310.832 576.018 299.871 573.332 294.246 574.403C286.915 575.798 284.51 577.437 279.324 582.227C272.464 588.566 269.91 594.183 269.678 602.666C269.593 605.761 270.838 611.713 270.838 611.713C270.838 611.713 275.693 610.804 278.969 612.789C282.285 614.797 282.335 618.904 282.335 618.904C282.335 618.904 290.426 619.121 296.173 617.516C304.451 615.204 309.869 610.411 313.539 603.582Z" fill="#FAA6A6"/>
<path d="M282.815 586.575C291.058 586.655 293.589 586.68 300.058 582.964C304.765 580.261 311.047 573.306 311.047 573.306C311.047 573.306 309.498 563.704 306.068 559.768C301.598 554.639 298.861 553.434 291.605 551.346C282.005 548.583 274.925 548.874 265.702 552.129C262.336 553.317 256.435 556.694 256.435 556.694C256.435 556.694 259.379 560.097 258.57 563.446C257.751 566.835 253.352 568.537 253.352 568.537C253.352 568.537 256.394 574.91 260.449 578.724C266.29 584.218 273.642 586.485 282.478 586.571L282.815 586.575Z" fill="#FAA6A6"/>
<line y1="-5" x2="164.776" y2="-5" transform="matrix(0.964652 0.263526 -0.325507 0.94554 144.309 536.781)" stroke="#F5ED9C" stroke-width="10"/>
<ellipse cx="146.216" cy="536.403" rx="12.5042" ry="11.7052" fill="#F5ED9C"/>
<line y1="-5" x2="148.141" y2="-5" transform="matrix(0.768853 0.609628 -0.671306 0.765513 189.336 488.2)" stroke="#F5ED9C" stroke-width="10"/>
<ellipse rx="11.1328" ry="11.806" transform="matrix(0.934112 0.356979 -0.417754 0.90856 191.081 488.46)" fill="#F5ED9C"/>
<line y1="-5" x2="199.446" y2="-5" transform="matrix(0.571233 0.792996 -0.922326 0.455792 191.236 414.969)" stroke="#F5ED9C" stroke-width="10"/>
<ellipse rx="15.1801" ry="13.5913" transform="matrix(0.773765 0.633473 -0.701748 0.712425 193.335 416.124)" fill="#F5ED9C"/>
<line y1="-5" x2="167.474" y2="-5" transform="matrix(0.259209 0.94382 -1.00873 0.170535 260.731 423.439)" stroke="#F5ED9C" stroke-width="10"/>
<ellipse rx="12.6599" ry="12.4951" transform="matrix(0.525924 0.850531 -0.889414 0.457102 262.106 424.897)" fill="#F5ED9C"/>
<line y1="-5" x2="205.915" y2="-5" transform="matrix(-0.0411644 0.986148 -1.01049 -0.0531076 309.157 376.873)" stroke="#F5ED9C" stroke-width="10"/>
<ellipse rx="15.4227" ry="16.974" transform="matrix(0.26959 0.962975 -0.973981 0.226629 310.324 379.014)" fill="#F5ED9C"/>
<line y1="-5" x2="165.293" y2="-5" transform="matrix(-0.307217 0.951507 -0.961439 -0.275433 359.177 424.898)" stroke="#F5ED9C" stroke-width="10"/>
<ellipse rx="12.364" ry="13.7964" transform="matrix(0.00254048 0.999997 -0.999998 0.00211151 359.627 426.783)" fill="#F5ED9C"/>
<line y1="-5" x2="150.695" y2="-5" transform="matrix(-0.824978 0.597224 -0.462387 -0.848357 432.59 488.449)" stroke="#F5ED9C" stroke-width="10"/>
<ellipse rx="11.5894" ry="8.54588" transform="matrix(-0.67207 0.740487 -0.798329 -0.602221 431.622 489.924)" fill="#F5ED9C"/>
<line y1="-5" x2="166.028" y2="-5" transform="matrix(-0.971087 0.304064 -0.186752 -0.951763 482.232 528.077)" stroke="#F5ED9C" stroke-width="10"/>
<ellipse rx="12.7445" ry="9.79005" transform="matrix(-0.868144 0.496312 -0.566718 -0.823912 480.723 529.302)" fill="#F5ED9C"/>
<ellipse rx="21.5574" ry="13.707" transform="matrix(-1.02635 0.101371 -0.113989 -0.959218 313.461 576.567)" fill="#F5ED9C"/>
<line y1="-5" x2="207.328" y2="-5" transform="matrix(-0.555259 0.84709 -0.812958 -0.55512 427.243 406.686)" stroke="#F5ED9C" stroke-width="10"/>
<ellipse rx="15.725" ry="14.8309" transform="matrix(-0.310271 0.950648 -0.96512 -0.261806 426.961 409.092)" fill="#F5ED9C"/>
<path d="M756.766 425.622L758.867 421.273L757.034 420.253L755.125 420.754L756.766 425.622ZM756.766 425.622C758.867 421.273 758.868 421.273 758.868 421.274L758.871 421.275L758.878 421.279L758.905 421.294L759.007 421.351C759.095 421.4 759.225 421.473 759.393 421.568C759.73 421.758 760.223 422.037 760.856 422.398C762.12 423.12 763.943 424.17 766.189 425.493C770.677 428.136 776.867 431.872 783.675 436.244C797.156 444.901 813.539 456.353 823.735 466.884C837.469 481.068 845.259 491.534 850.518 503.754C855.497 515.322 858.085 528.236 861.78 546.671C861.911 547.326 862.044 547.989 862.178 548.658C870.617 590.728 865.348 627.722 840.064 659.56C831.255 670.652 818.692 680.787 808.522 688.063C803.404 691.726 798.823 694.712 795.517 696.786C793.863 697.824 792.526 698.634 791.597 699.188C791.133 699.465 790.77 699.679 790.521 699.824C790.469 699.854 790.422 699.882 790.38 699.906C790.321 699.94 790.273 699.968 790.234 699.991L790.157 700.035L790.135 700.047L790.129 700.051L790.127 700.052C790.126 700.053 790.125 700.053 787.393 695.63L790.125 700.053L786.238 702.275L783.433 698.311L783.433 698.31L783.43 698.307L783.429 698.305L783.427 698.302L783.421 698.293C783.406 698.273 783.378 698.235 783.338 698.18C783.258 698.072 783.128 697.899 782.95 697.67C782.595 697.211 782.051 696.531 781.334 695.7C779.894 694.031 777.785 691.785 775.133 689.501C769.757 684.87 762.588 680.454 754.481 679.782C746.357 679.109 738.644 682.148 732.702 685.685C729.779 687.425 727.402 689.215 725.763 690.565C724.946 691.239 724.318 691.797 723.905 692.178C723.698 692.368 723.545 692.514 723.449 692.606C723.42 692.635 723.396 692.658 723.377 692.676L723.348 692.705L723.335 692.718L723.333 692.719L723.332 692.721L723.33 692.722L723.33 692.723L719.924 696.154L716.252 692.35L719.666 689.012C716.252 692.35 716.251 692.35 716.251 692.349L716.25 692.348L716.246 692.344L716.231 692.329L716.176 692.271L715.965 692.052C715.781 691.86 715.511 691.578 715.165 691.215C714.474 690.49 713.478 689.44 712.254 688.135C709.806 685.526 706.439 681.891 702.76 677.786C695.478 669.661 686.71 659.403 681.557 651.616C667.9 630.974 658.729 612.112 653.753 592.359C648.775 572.599 648.072 552.255 650.957 528.712C653.097 511.247 655.194 498.573 659.926 487.201C664.697 475.733 672.004 465.906 684.019 453.707C693.838 443.737 711.971 435.514 726.944 429.881C734.557 427.017 741.587 424.74 746.711 423.179C749.275 422.398 751.368 421.795 752.824 421.385C753.552 421.181 754.122 421.024 754.512 420.918C754.707 420.865 754.858 420.825 754.961 420.798L755.079 420.766L755.111 420.758L755.121 420.755L755.123 420.754C755.124 420.754 755.125 420.754 756.766 425.622Z" fill="#F2CBCB" stroke="black" stroke-width="10"/>
<path d="M755.454 386.711L751.025 389.029L751.907 390.716L753.686 391.389L755.454 386.711ZM755.454 386.711C751.025 389.029 751.024 389.028 751.024 389.028L751.023 389.025L751.019 389.018L751.005 388.991L750.952 388.89C750.906 388.801 750.839 388.671 750.751 388.502C750.577 388.163 750.321 387.666 749.996 387.026C749.345 385.746 748.413 383.894 747.282 381.591C745.02 376.986 741.956 370.569 738.745 363.313C732.386 348.943 725.225 330.787 722.823 316.927C719.588 298.257 719.207 285.814 722.082 273.499C724.803 261.847 730.403 250.577 738.359 234.567C738.646 233.989 738.937 233.406 739.23 232.815C757.463 196.107 784.47 171.248 825.546 162.005C839.841 158.788 856.775 158.485 869.913 158.937C876.527 159.164 882.271 159.586 886.366 159.952C888.414 160.136 890.053 160.305 891.186 160.429C891.752 160.491 892.193 160.542 892.494 160.578C892.645 160.596 892.761 160.61 892.841 160.62L892.934 160.631L892.96 160.635L892.967 160.636L892.97 160.636C892.971 160.636 892.972 160.636 892.344 165.598L892.972 160.636L897.327 161.188L897.343 165.57L897.343 165.571L897.343 165.575L897.343 165.578L897.343 165.581L897.343 165.59C897.343 165.614 897.344 165.658 897.346 165.722C897.349 165.85 897.356 166.055 897.37 166.331C897.398 166.882 897.455 167.71 897.57 168.753C897.799 170.847 898.255 173.771 899.158 177.044C900.982 183.663 904.501 191.263 911.184 196.589C917.869 201.915 926.432 204.131 933.682 204.933C937.257 205.329 940.389 205.367 942.616 205.306C943.727 205.276 944.605 205.221 945.191 205.176C945.484 205.153 945.703 205.133 945.842 205.119C945.911 205.112 945.96 205.107 945.988 205.104L946.006 205.102L946.009 205.101L946.011 205.101L946.013 205.101L946.014 205.101L950.722 204.539L951.525 209.222L946.599 210.068C951.525 209.222 951.526 209.222 951.526 209.223L951.526 209.224L951.527 209.23L951.53 209.25L951.543 209.325L951.592 209.613C951.634 209.865 951.696 210.235 951.774 210.709C951.93 211.658 952.152 213.029 952.416 214.725C952.944 218.116 953.643 222.816 954.326 228.051C955.677 238.41 957.018 251.249 956.742 260.126C956.011 283.635 952.495 303.222 944.808 321.052C937.115 338.896 925.378 354.671 908.63 370.744C896.228 382.646 886.724 391.001 875.728 396.831C864.643 402.707 852.388 405.845 834.685 408.022C820.221 409.801 799.681 405.424 783.413 400.939C775.14 398.658 767.724 396.276 762.377 394.465C759.702 393.559 757.54 392.794 756.042 392.254C755.292 391.983 754.709 391.769 754.31 391.622C754.111 391.548 753.958 391.491 753.853 391.452L753.732 391.407L753.7 391.394L753.691 391.391L753.688 391.39C753.687 391.389 753.686 391.389 755.454 386.711Z" fill="#F2CBCB" stroke="black" stroke-width="10"/>
<path d="M903.61 362.373C863.902 351.63 852.24 348.186 817.991 360.191C793.401 368.811 757.381 398.034 757.381 398.034C757.381 398.034 755.428 450.755 767.692 475.752C783.673 508.325 795.313 518.019 827.227 537.86C869.449 564.111 902.818 571.142 949.042 565.071C965.911 562.856 996.722 552.114 996.722 552.114C996.722 552.114 986.222 530.529 993.21 513.777C1000.28 496.823 1022.47 493.133 1022.47 493.133C1022.47 493.133 1014.35 455.703 999.054 430.596C977.016 394.431 944.824 373.524 903.61 362.373Z" fill="#D9D9D9"/>
<path d="M762.232 400.677C763.238 399.884 764.648 398.784 766.387 397.455C770.106 394.613 775.317 390.735 781.284 386.594C793.337 378.228 808.041 369.096 819.689 365.012C836.51 359.116 847.328 357.175 858.623 357.828C869.954 358.483 881.99 361.74 901.378 366.987L902.498 367.29C942.761 378.184 973.721 398.429 994.92 433.216C1002.24 445.223 1007.94 460.377 1011.83 472.728C1013.77 478.865 1015.24 484.233 1016.22 488.06C1016.33 488.507 1016.44 488.932 1016.54 489.335C1014.28 490.008 1011.41 491.012 1008.34 492.462C1001.44 495.728 992.895 501.566 988.69 511.647C984.585 521.487 985.72 532.368 987.571 540.285C988.359 543.655 989.309 546.622 990.148 548.938C990.107 548.952 990.066 548.965 990.026 548.979C986.901 550.011 982.562 551.411 977.705 552.877C967.892 555.84 956.299 558.974 948.283 560.027C925.56 563.011 906.239 562.744 887.522 558.614C868.804 554.484 850.431 546.432 829.665 533.522C813.708 523.601 803.287 516.491 794.861 507.991C786.517 499.573 779.913 489.564 772.06 473.557C766.44 462.104 763.885 443.636 762.84 427.332C762.327 419.316 762.19 412.058 762.181 406.803C762.177 404.223 762.204 402.132 762.232 400.677Z" fill="#F2CBCB" stroke="black" stroke-width="10"/>
<path d="M740.938 409.857L745.993 410.908L746.281 408.969L745.058 407.28L740.938 409.857ZM740.938 409.857C745.993 410.908 745.993 410.909 745.993 410.91L745.993 410.912L745.992 410.92L745.987 410.949L745.971 411.056C745.957 411.15 745.936 411.287 745.908 411.466C745.853 411.823 745.771 412.347 745.663 413.018C745.446 414.362 745.123 416.3 744.699 418.693C743.85 423.478 742.592 430.096 740.951 437.43C737.702 451.953 732.845 469.801 726.501 481.631C717.957 497.565 710.748 507.117 700.852 514.66C691.485 521.801 679.882 526.978 663.319 534.367C662.73 534.63 662.135 534.896 661.533 535.164C623.738 552.035 585.609 554.929 544.795 537.894C530.575 531.959 515.843 522.288 504.823 514.263C499.276 510.224 494.595 506.547 491.297 503.876C489.647 502.54 488.341 501.454 487.442 500.698C486.992 500.319 486.645 500.024 486.407 499.82C486.288 499.718 486.197 499.64 486.134 499.585L486.06 499.522L486.04 499.504L486.034 499.499L486.032 499.497C486.031 499.497 486.031 499.496 489.296 495.988L486.031 499.496L482.367 496.312L485.151 492.834L485.152 492.833L485.154 492.83L485.156 492.828L485.158 492.826L485.164 492.818C485.173 492.806 485.187 492.788 485.206 492.763C485.217 492.75 485.229 492.734 485.242 492.716C485.317 492.618 485.436 492.459 485.591 492.243C485.902 491.811 486.355 491.155 486.89 490.304C487.963 488.595 489.341 486.133 490.547 483.153C492.993 477.111 494.538 469.427 492.068 461.654C489.592 453.865 483.651 447.251 477.909 442.41C475.085 440.029 472.422 438.173 470.472 436.917C469.5 436.29 468.713 435.818 468.182 435.51C467.917 435.356 467.716 435.243 467.588 435.172C467.525 435.137 467.479 435.112 467.453 435.098L467.436 435.088L467.433 435.087L467.431 435.086L467.43 435.085C467.428 435.084 467.428 435.084 467.429 435.085L462.771 432.61L465.065 428.35L469.64 430.851C465.065 428.35 465.065 428.349 465.066 428.349L465.066 428.348L465.069 428.343L465.078 428.326L465.113 428.262L465.246 428.017C465.362 427.803 465.533 427.489 465.753 427.087C466.194 426.282 466.835 425.122 467.636 423.693C469.238 420.836 471.487 416.896 474.073 412.562C479.194 403.985 485.822 393.557 491.433 387.056C506.308 369.823 521.176 357.188 538.531 348.313C555.892 339.434 575.473 334.454 599.557 332.172C617.422 330.479 630.598 329.762 643.519 331.801C656.549 333.856 668.954 338.647 685.489 347.363C699.004 354.487 714.018 369.806 725.287 382.699C731.017 389.255 735.949 395.387 739.448 399.878C741.199 402.125 742.594 403.966 743.555 405.249C744.035 405.891 744.407 406.394 744.661 406.738C744.788 406.911 744.885 407.044 744.952 407.135L745.028 407.24L745.049 407.268L745.055 407.276L745.057 407.279C745.057 407.28 745.058 407.28 740.938 409.857Z" fill="#F2CBCB" stroke="black" stroke-width="10"/>
<path d="M750.82 399.469L751.831 404.285L754.096 403.863L755.242 401.94L750.82 399.469ZM750.82 399.469C751.831 404.285 751.831 404.286 751.83 404.286L751.828 404.286L751.819 404.288L751.79 404.293L751.681 404.313C751.586 404.331 751.447 404.356 751.266 404.389C750.904 404.454 750.373 404.549 749.691 404.668C748.327 404.905 746.356 405.239 743.908 405.627C739.016 406.403 732.208 407.4 724.543 408.283C709.366 410.03 690.283 411.399 676.11 409.485C657.025 406.908 644.621 403.484 632.821 397.034C621.637 390.922 611.192 382.174 596.167 369.592C595.646 369.155 595.119 368.714 594.587 368.268C560.53 339.755 539.328 306.502 535.35 264.362C533.962 249.657 535.811 233.267 537.938 220.733C539.008 214.428 540.162 209.021 541.05 205.185C541.495 203.265 541.873 201.736 542.142 200.68C542.276 200.153 542.384 199.743 542.458 199.463C542.495 199.322 542.524 199.214 542.544 199.139L542.568 199.052L542.575 199.028L542.577 199.021L542.577 199.018C542.577 199.018 542.578 199.017 547.502 200.311L542.578 199.017L543.927 194.105L548.975 195.628L548.976 195.628L548.979 195.629L548.982 195.63L548.984 195.631L548.997 195.634C549.023 195.642 549.068 195.655 549.133 195.673C549.264 195.709 549.472 195.766 549.751 195.837C550.309 195.978 551.146 196.177 552.205 196.385C554.331 196.803 557.302 197.252 560.666 197.38C567.527 197.641 575.275 196.542 581.122 191.979C587.002 187.39 590.255 180.067 591.982 173.321C592.826 170.021 593.261 167.029 593.484 164.867C593.595 163.79 593.652 162.928 593.682 162.349C593.696 162.06 593.704 161.842 593.708 161.703C593.71 161.634 593.711 161.585 593.712 161.557L593.712 161.537L593.712 161.535L593.712 161.532L593.712 161.531L593.712 161.53L593.757 155.981L599.476 156.763L598.805 161.619C599.476 156.763 599.476 156.763 599.477 156.763L599.478 156.763L599.484 156.764L599.504 156.767L599.581 156.777L599.875 156.818C600.132 156.854 600.508 156.907 600.992 156.977C601.96 157.115 603.357 157.319 605.084 157.582C608.536 158.106 613.317 158.865 618.63 159.802C629.153 161.659 642.124 164.276 650.92 167.236C674.271 175.093 693.272 184.408 709.953 197.133C726.632 209.857 740.777 225.826 754.622 246.744C764.92 262.302 771.97 273.88 776.338 286.097C780.743 298.42 782.321 311.097 782.241 328.816C782.176 343.302 775.169 361.811 768.601 376.15C765.263 383.439 761.932 389.87 759.437 394.478C758.188 396.784 757.146 398.639 756.413 399.921C756.047 400.563 755.757 401.062 755.558 401.403C755.458 401.574 755.381 401.705 755.328 401.795L755.267 401.899L755.25 401.927L755.245 401.935L755.243 401.938C755.243 401.939 755.242 401.94 750.82 399.469Z" fill="#F2CBCB" stroke="black" stroke-width="10"/>
<path d="M756.975 374.857C753.836 381.438 752.857 383.35 754.367 390.568C755.452 395.751 760.331 404.546 760.331 404.546C760.331 404.546 770.737 408.732 776.005 408.272C782.87 407.672 785.088 406.218 789.834 401.742C796.112 395.82 798.354 390.146 798.325 381.138C798.314 377.851 796.967 371.361 796.967 371.361C796.967 371.361 792.42 371.742 789.275 369.231C786.093 366.691 785.925 362.311 785.925 362.311C785.925 362.311 778.296 361.1 772.929 362.115C765.197 363.577 760.234 368.027 756.975 374.857Z" fill="#FAA6A6"/>
<path d="M781.596 436.967C779.762 429.214 779.277 426.922 773.74 421.292C769.765 417.249 760.856 412.152 760.856 412.152C760.856 412.152 750.865 414.415 747.4 417.886C742.886 422.41 742.207 425.007 741.597 431.795C740.791 440.775 742.703 447.191 748.292 455.294C750.332 458.251 755.302 463.319 755.302 463.319C755.302 463.319 758.302 460.338 762.091 460.776C765.926 461.22 768.753 465.071 768.753 465.071C768.753 465.071 774.929 461.736 778.121 457.708C782.719 451.905 783.5 445.014 781.596 436.967Z" fill="#FAA6A6"/>
<path d="M789.493 400.802C781.56 398.435 779.228 397.683 772.53 399.794C767.721 401.31 760.79 406.77 760.79 406.77C760.79 406.77 760.762 417.049 763.359 422.012C766.744 428.48 769.114 430.452 775.566 434.542C784.102 439.953 790.755 441.553 799.863 440.682C803.187 440.364 809.213 438.477 809.213 438.477C809.213 438.477 806.988 434.191 808.257 430.968C809.542 427.707 813.909 427.137 813.909 427.137C813.909 427.137 812.048 419.775 808.849 414.769C804.241 407.559 797.726 403.259 789.493 400.802Z" fill="#D9D9D9"/>
<path d="M789.493 400.802C781.56 398.435 779.228 397.683 772.53 399.794C767.721 401.31 760.79 406.77 760.79 406.77C760.79 406.77 760.762 417.049 763.359 422.012C766.744 428.48 769.114 430.452 775.566 434.542C784.102 439.953 790.755 441.553 799.863 440.682C803.187 440.364 809.213 438.477 809.213 438.477C809.213 438.477 806.988 434.191 808.257 430.968C809.542 427.707 813.909 427.137 813.909 427.137C813.909 427.137 812.048 419.775 808.849 414.769C804.241 407.559 797.726 403.259 789.493 400.802Z" fill="#FAA6A6"/>
<path d="M742.236 432.001C749.141 429.155 751.208 428.367 754.322 422.362C756.558 418.051 757.615 408.966 757.615 408.966C757.615 408.966 750.84 399.941 745.811 397.203C739.257 393.636 736.358 393.378 729.311 393.796C719.987 394.349 714.45 397.075 708.894 403.488C706.866 405.829 704.057 411.221 704.057 411.221C704.057 411.221 708.387 413.596 709.663 417.207C710.954 420.863 708.39 424.071 708.39 424.071C708.39 424.071 714.51 429.368 719.972 431.769C727.84 435.229 735.068 434.956 742.236 432.001Z" fill="#FAA6A6"/>
<path d="M729.254 399.371C735.579 404.659 737.52 406.282 744.879 407.509C750.234 408.402 759.501 407.006 759.501 407.006C759.501 407.006 764.39 398.598 764.232 393.379C764.026 386.578 762.673 383.911 758.385 377.697C752.711 369.475 747.051 365.212 737.854 361.882C734.498 360.667 727.794 359.539 727.794 359.539C727.794 359.539 727.913 364.037 725.165 366.114C722.383 368.216 717.902 366.744 717.902 366.744C717.902 366.744 716.215 373.601 716.933 379.121C717.967 387.073 722.216 393.487 728.996 399.155L729.254 399.371Z" fill="#FAA6A6"/>
<line y1="-5" x2="164.776" y2="-5" transform="matrix(0.579021 0.815312 -0.851134 0.524948 653.697 273.06)" stroke="#F5ED9C" stroke-width="10"/>
<ellipse cx="655.411" cy="273.977" rx="12.5042" ry="11.7052" transform="rotate(39.3389 655.411 273.977)" fill="#F5ED9C"/>
<line y1="-5" x2="148.141" y2="-5" transform="matrix(0.208191 0.958873 -1.00446 0.16651 719.317 264.03)" stroke="#F5ED9C" stroke-width="10"/>
<ellipse rx="11.1328" ry="11.806" transform="matrix(0.49616 0.868231 -0.899037 0.437872 720.502 265.338)" fill="#F5ED9C"/>
<line y1="-5" x2="199.446" y2="-5" transform="matrix(-0.0608881 0.975419 -1.00227 -0.232154 767.208 208.597)" stroke="#F5ED9C" stroke-width="10"/>
<ellipse rx="15.1801" ry="13.5913" transform="matrix(0.196875 0.980429 -0.99435 0.106154 768.1 210.821)" fill="#F5ED9C"/>
<line y1="-5" x2="167.474" y2="-5" transform="matrix(-0.397819 0.894274 -0.888261 -0.507544 815.588 259.201)" stroke="#F5ED9C" stroke-width="10"/>
<ellipse rx="12.6599" ry="12.4951" transform="matrix(-0.132402 0.991196 -0.977642 -0.210278 815.726 261.2)" fill="#F5ED9C"/>
<line y1="-5" x2="205.915" y2="-5" transform="matrix(-0.656962 0.736602 -0.747859 -0.681631 882.559 253.884)" stroke="#F5ED9C" stroke-width="10"/>
<ellipse rx="15.4227" ry="16.974" transform="matrix(-0.401933 0.915669 -0.896948 -0.442136 882.104 256.28)" fill="#F5ED9C"/>
<line y1="-5" x2="165.293" y2="-5" transform="matrix(-0.840771 0.541158 -0.568988 -0.822485 890.802 322.735)" stroke="#F5ED9C" stroke-width="10"/>
<ellipse rx="12.364" ry="13.7964" transform="matrix(-0.631939 0.775018 -0.774747 -0.632272 889.954 324.478)" fill="#F5ED9C"/>
<line y1="-5" x2="150.695" y2="-5" transform="matrix(-1.01663 -0.0610603 0.180164 -0.949238 907.295 418.423)" stroke="#F5ED9C" stroke-width="10"/>
<ellipse rx="11.5894" ry="8.54588" transform="matrix(-0.989185 0.14667 -0.235684 -0.97183 905.611 418.95)" fill="#F5ED9C"/>
<line y1="-5" x2="166.028" y2="-5" transform="matrix(-0.943796 -0.380412 0.458893 -0.854486 920.568 480.54)" stroke="#F5ED9C" stroke-width="10"/>
<ellipse rx="12.7445" ry="9.79005" transform="matrix(-0.986047 -0.16647 0.083978 -0.996468 918.625 480.531)" fill="#F5ED9C"/>
<ellipse rx="21.5574" ry="13.707" transform="matrix(-0.858048 -0.572207 0.519894 -0.814126 759.301 411.058)" fill="#F5ED9C"/>
<line y1="-5" x2="207.328" y2="-5" transform="matrix(-0.966418 0.303166 -0.276856 -0.944674 954.989 351.798)" stroke="#F5ED9C" stroke-width="10"/>
<ellipse rx="15.725" ry="14.8309" transform="matrix(-0.842589 0.538558 -0.580473 -0.814279 953.246 353.479)" fill="#F5ED9C"/>
</svg>
