<svg width="605" height="558" viewBox="0 0 605 558" fill="none" xmlns="http://www.w3.org/2000/svg">
<path d="M522.628 228.659C481.712 262.771 418.555 255.305 381.636 211.021C344.718 166.738 348.736 103.268 389.653 69.156C430.57 35.0438 493.726 42.5098 530.645 86.7936C567.564 131.077 563.545 194.547 522.628 228.659Z" fill="#FAA6A6" stroke="black" stroke-width="10"/>
<path d="M133.611 457.834C108.682 460.907 89.1418 436.819 97.2896 413.06L124.015 335.127C132.768 309.604 166.336 303.957 182.958 325.21L236.2 393.283C252.487 414.108 239.818 444.739 213.579 447.974L133.611 457.834Z" fill="#FFEBEB" stroke="black" stroke-width="10"/>
<path d="M84.8568 462.502C69.1068 452.502 104.357 385.752 104.357 385.752L161.856 456.752C161.856 456.752 100.607 472.502 84.8568 462.502Z" fill="black" stroke="black" stroke-width="11"/>
<path d="M146.783 275.239C127.956 290.788 128.042 318.557 142.119 337.081C145.296 341.262 148.083 345.401 150.113 349.219C153.795 356.142 155.365 363.227 156.828 370.281C156.902 370.64 156.977 371 157.051 371.363C158.374 377.78 159.807 384.732 163.4 390.246C165.684 393.751 169.428 396.308 173.19 398.384C176.535 400.231 180.493 402.005 184.5 403.801C185.086 404.064 185.674 404.328 186.261 404.592C195.724 408.851 205.653 413.608 213.253 421.074C214.461 422.261 215.7 423.583 216.954 425.01C232.633 442.851 260.444 449.49 279.927 433.399L483.774 265.039C500.807 250.971 503.211 225.759 489.143 208.726L408.441 111.011C394.373 93.9781 369.161 91.5743 352.127 105.642L146.783 275.239Z" fill="#F5ED9C" stroke="black" stroke-width="10"/>
<path d="M312.198 138.628C299.423 149.179 297.62 168.088 308.171 180.863L402.307 294.842C412.858 307.617 431.767 309.42 444.542 298.869L505.519 248.507C518.294 237.956 520.097 219.047 509.546 206.272L415.41 92.2933C404.859 79.5184 385.95 77.7155 373.175 88.2664L312.198 138.628Z" fill="#D9D9D9" stroke="black" stroke-width="10"/>
<path d="M287.414 136.592C275.625 146.329 273.961 163.78 283.698 175.57L400.261 316.703C409.998 328.493 427.449 330.157 439.238 320.42C451.028 310.682 452.692 293.231 442.955 281.442L326.392 140.308C316.655 128.519 299.204 126.855 287.414 136.592Z" fill="#D9D9D9" stroke="black" stroke-width="10"/>
<path d="M368.914 63.0918C357.125 72.829 355.461 90.28 365.198 102.07L481.761 243.203C491.498 254.993 508.949 256.657 520.738 246.919C532.528 237.182 534.192 219.731 524.455 207.941L407.892 66.8082C398.155 55.0185 380.704 53.3546 368.914 63.0918Z" fill="#D9D9D9" stroke="black" stroke-width="10"/>
<line y1="-5" x2="138.406" y2="-5" transform="matrix(0.771068 -0.636753 0.63675 0.771071 215.496 352.567)" stroke="black" stroke-width="10"/>
</svg>
