<svg width="1051" height="733" viewBox="0 0 1051 733" fill="none" xmlns="http://www.w3.org/2000/svg">
<line x1="571.998" y1="331.065" x2="787.836" y2="210.969" stroke="black" stroke-width="20"/>
<path d="M886.723 119.04C919.855 113.801 941.516 152.73 919.597 178.122L849.125 259.761C832.779 278.698 802.579 275.601 790.416 253.742L754.363 188.947C742.2 167.088 755.49 139.792 780.198 135.885L886.723 119.04Z" fill="#F5ED9C" stroke="black" stroke-width="10"/>
<path d="M493.941 267.193L493.942 267.195L497.3 271.148L501.127 267.642L501.128 267.641L501.129 267.64L501.142 267.629L501.203 267.574C501.258 267.523 501.345 267.445 501.461 267.341C501.693 267.133 502.045 266.819 502.512 266.411C503.444 265.594 504.832 264.397 506.631 262.9C510.229 259.904 515.463 255.712 521.973 250.955C535.015 241.425 553.068 229.711 573.256 220.803C593.488 211.875 615.511 205.923 636.617 207.499C657.513 209.059 677.812 218.006 694.969 239.519C727.079 279.778 730.928 321.053 718.744 360.71C706.462 400.688 677.808 439.174 644.595 472.899C611.445 506.56 574.116 535.116 545.022 555.281C530.486 565.355 518.032 573.316 509.221 578.754C504.816 581.473 501.323 583.56 498.937 584.964C498.577 585.175 498.242 585.371 497.934 585.552C497.59 585.322 497.214 585.07 496.805 584.795C494.403 583.178 490.89 580.781 486.465 577.675C477.613 571.463 465.12 562.417 450.581 551.106C421.479 528.466 384.285 496.827 351.7 460.719C319.042 424.529 291.402 384.269 280.831 344.409C270.364 304.941 276.57 265.81 311.876 230.682C332.432 210.229 353.779 202.432 374.218 201.921C394.817 201.405 414.935 208.286 432.801 217.97C450.644 227.643 465.953 239.957 476.834 249.904C482.263 254.867 486.563 259.217 489.497 262.315C490.963 263.863 492.087 265.098 492.838 265.938C493.213 266.358 493.495 266.679 493.68 266.892C493.773 266.998 493.841 267.077 493.885 267.128L493.932 267.182L493.941 267.193Z" fill="#FFEBEB" stroke="black" stroke-width="10"/>
<line x1="240.96" y1="525.204" x2="434.058" y2="405.864" stroke="black" stroke-width="20" stroke-linecap="round"/>
<path d="M116.508 625.64C121.083 612.844 112.177 599.187 98.5495 598.103C68.2207 595.69 58.4935 556.177 84.3038 540.235L165.929 489.817C176.147 483.505 187.976 480.238 200.019 480.399L248.993 481.058C281.429 481.493 302.909 514.805 289.741 544.253L269.152 590.296C263.798 602.27 254.955 612.364 243.763 619.277L166.16 667.21C138.792 684.115 105.228 657.188 116.026 626.99L116.508 625.64Z" fill="#F5ED9C" stroke="black" stroke-width="10"/>
</svg>
