<svg width="1179" height="1180" viewBox="0 0 1179 1180" fill="none" xmlns="http://www.w3.org/2000/svg">
<path d="M857.33 369.915L836.93 515.885C834.852 530.757 837.754 545.898 845.185 558.947L918.23 687.216C937.847 721.664 917.896 765.201 878.996 772.833L730.953 801.878C716.517 804.71 703.389 812.148 693.538 823.074L592.618 935.021C565.737 964.838 517.423 958.988 498.436 923.617L429.638 795.454C422.444 782.052 410.965 771.45 397.036 765.341L263.822 706.919C227.057 690.795 217.395 643.097 244.988 613.938L348.583 504.46C358.694 493.775 365.067 480.098 366.746 465.483L383.965 315.604C388.489 276.221 430.308 252.882 466.202 269.706L599.858 332.354C613.455 338.727 628.778 340.42 643.438 337.169L787.332 305.263C826.827 296.505 862.929 329.85 857.33 369.915Z" fill="#F5ED9C" stroke="black" stroke-width="10"/>
</svg>
