<svg width="926" height="842" viewBox="0 0 926 842" fill="none" xmlns="http://www.w3.org/2000/svg">
<path d="M417.234 66.9254C440.455 37.0983 485.545 37.0983 508.766 66.9254L612.379 200.016C621.273 211.44 633.582 219.728 647.512 223.672L809.449 269.518C849.656 280.902 864.996 329.784 838.5 362.099L742.328 479.397C732.16 491.799 726.702 507.396 726.919 523.432L728.973 675.138C729.506 714.49 691.526 742.936 653.912 731.355L483.009 678.739C469.971 674.725 456.029 674.725 442.991 678.739L272.088 731.355C234.474 742.936 196.494 714.49 197.027 675.138L199.081 523.432C199.298 507.396 193.84 491.799 183.672 479.397L87.4995 362.099C61.0045 329.784 76.3437 280.902 116.551 269.518L278.488 223.672C292.418 219.728 304.727 211.44 313.621 200.016L417.234 66.9254Z" fill="#F5ED9C" stroke="black" stroke-width="10"/>
<ellipse cx="312" cy="441.5" rx="90" ry="62.5" fill="#FAA6A6" fill-opacity="0.52"/>
<ellipse cx="618" cy="441.5" rx="90" ry="62.5" fill="#FAA6A6" fill-opacity="0.52"/>
<ellipse cx="355.5" cy="379" rx="22.5" ry="19" fill="black"/>
<ellipse cx="581.5" cy="379" rx="22.5" ry="19" fill="black"/>
<path d="M405 419.444C405 419.444 418.1 440.968 465.771 443C513.442 445.032 527.771 418 527.771 418" stroke="black" stroke-width="10"/>
</svg>
