<svg width="808" height="720" viewBox="0 0 808 720" fill="none" xmlns="http://www.w3.org/2000/svg">
<path d="M561.27 164.873L457.657 31.7824C430.432 -3.18738 377.568 -3.18735 350.343 31.7824L246.73 164.873C239.144 174.617 228.646 181.686 216.764 185.05L54.8274 230.897C7.68726 244.243 -10.2967 301.553 20.7665 339.439L116.939 456.737C125.612 467.315 130.267 480.618 130.082 494.296L128.028 646.002C127.403 692.139 171.932 725.489 216.03 711.913L386.934 659.296C398.054 655.872 409.946 655.872 421.066 659.296L591.97 711.913C636.069 725.489 680.597 692.139 679.972 646.002L677.918 494.296C677.733 480.618 682.388 467.315 691.061 456.737L787.234 339.439C818.297 301.553 800.313 244.243 753.173 230.897L591.236 185.05C579.354 181.686 568.856 174.617 561.27 164.873Z" fill="#F5ED9C" stroke="black" stroke-width="10"/>
</svg>
