<svg width="804" height="691" viewBox="0 0 804 691" fill="none" xmlns="http://www.w3.org/2000/svg">
<path d="M475.83 385.465L483.986 267.99C487.795 213.127 436.793 171.476 383.293 185.759L337.458 197.995C327.232 200.725 317.604 205.405 309.11 211.772L258.116 249.998C214.717 282.53 213.872 346.838 256.422 378.994L345.094 446.007C396.386 484.769 471.346 450.056 475.83 385.465Z" fill="#C75151" stroke="black" stroke-width="10"/>
<path d="M382.96 186.34C382.248 185.798 381.582 185.302 380.975 184.855C381.318 184.248 381.688 183.585 382.078 182.87C384.09 179.183 386.666 174.083 388.864 168.507C391.042 162.98 392.954 156.725 393.453 150.79C393.946 144.922 393.115 138.504 388.751 133.701C385.55 130.178 381.083 129.957 377.408 130.708C373.73 131.46 369.729 133.355 365.77 135.711C357.776 140.468 348.53 147.981 339.895 155.698C331.207 163.462 322.924 171.626 316.826 177.834C313.773 180.942 311.26 183.568 309.507 185.419C308.724 186.247 308.093 186.92 307.632 187.413C307.162 187.571 306.565 187.774 305.852 188.018C303.943 188.67 301.208 189.615 297.892 190.793C291.263 193.146 282.291 196.431 272.945 200.154C263.614 203.87 253.829 208.053 245.602 212.204C241.49 214.279 237.697 216.382 234.515 218.45C231.401 220.472 228.577 222.648 226.653 224.932C224.569 227.405 223.373 230.274 223.475 233.396C223.575 236.418 224.869 239.002 226.451 241.059C229.508 245.033 234.567 248.236 239.276 250.664C244.14 253.172 249.32 255.192 253.229 256.575C254.391 256.986 255.451 257.344 256.368 257.644C256.383 259.113 256.417 260.953 256.488 263.057C256.671 268.483 257.099 275.74 258.094 282.922C259.072 289.992 260.658 297.458 263.36 303.033C264.712 305.823 266.537 308.553 269.085 310.423C271.819 312.429 275.157 313.263 278.794 312.442C282.143 311.687 285.268 309.611 288.01 307.232C290.829 304.787 293.666 301.644 296.429 298.161C301.961 291.189 307.559 282.39 312.525 273.865C317.508 265.313 321.931 256.902 325.104 250.639C326.587 247.714 327.8 245.251 328.673 243.453C330.895 243.692 334.047 244.01 337.829 244.332C345.443 244.98 355.661 245.65 365.989 245.721C376.244 245.791 386.915 245.276 395.301 243.439C399.472 242.526 403.438 241.211 406.56 239.229C409.736 237.214 412.529 234.161 413.073 229.803C413.87 223.417 411.379 217.176 408.067 211.862C404.701 206.461 400.079 201.361 395.557 197.034C391.009 192.68 386.409 188.962 382.96 186.34Z" fill="#4FCB8F" stroke="black" stroke-width="10"/>
<path d="M308.243 379.155C307.4 380.099 305.545 380.637 302.577 380.39C299.717 380.151 296.265 379.214 292.82 377.818C289.384 376.426 286.036 374.609 283.383 372.67C280.675 370.691 278.899 368.736 278.296 367.131C277.043 363.801 278.45 359.332 281.518 355.811C284.581 352.295 288.767 350.331 292.39 351.294C294.193 351.773 296.435 353.342 298.766 355.759C301.058 358.137 303.288 361.181 305.094 364.352C306.904 367.53 308.245 370.76 308.816 373.501C309.408 376.339 309.09 378.205 308.243 379.155Z" fill="#FFEBEB" stroke="#FAA6A6" stroke-width="3"/>
<path d="M396.522 367.487C395.347 367.952 393.465 367.595 390.959 366.026C388.545 364.515 385.929 362.108 383.529 359.292C381.135 356.483 379.013 353.333 377.561 350.388C376.078 347.383 375.408 344.822 375.61 343.107C376.031 339.548 379.319 336.173 383.638 334.403C387.95 332.636 392.543 332.77 395.298 335.278C396.67 336.527 397.93 338.953 398.878 342.18C399.811 345.355 400.384 349.101 400.525 352.767C400.666 356.442 400.369 359.951 399.618 362.671C398.84 365.488 397.704 367.019 396.522 367.487Z" fill="#FFEBEB" stroke="#FAA6A6" stroke-width="3"/>
<path d="M446.562 375.402C445.317 375.536 443.612 374.689 441.633 372.498C439.728 370.388 437.872 367.356 436.335 363.987C434.801 360.626 433.62 357.008 433.025 353.768C432.417 350.461 432.468 347.799 433.128 346.19C434.496 342.858 438.559 340.477 443.172 339.922C447.778 339.368 452.141 340.727 454.103 343.894C455.082 345.473 455.632 348.162 455.667 351.541C455.702 354.864 455.236 358.644 454.378 362.23C453.518 365.825 452.283 369.142 450.826 371.573C449.316 374.094 447.814 375.266 446.562 375.402Z" fill="#FFEBEB" stroke="#FAA6A6" stroke-width="3"/>
<path d="M424.351 428.448C423.369 429.251 421.456 429.49 418.574 428.777C415.796 428.089 412.547 426.616 409.378 424.69C406.217 422.769 403.211 420.442 400.908 418.103C398.558 415.716 397.122 413.501 396.784 411.817C396.082 408.323 398.18 404.12 401.763 401.118C405.341 398.12 409.777 396.836 413.189 398.362C414.888 399.121 416.845 401.028 418.754 403.789C420.631 406.504 422.341 409.871 423.613 413.295C424.889 416.727 425.693 420.137 425.819 422.94C425.949 425.843 425.338 427.641 424.351 428.448Z" fill="#FFEBEB" stroke="#FAA6A6" stroke-width="3"/>
<path d="M366.985 403.501C366.281 404.548 364.516 405.335 361.534 405.5C358.662 405.659 355.103 405.208 351.489 404.304C347.884 403.402 344.306 402.068 341.402 400.518C338.438 398.936 336.402 397.248 335.579 395.745C333.872 392.627 334.646 388.019 337.201 384.119C339.751 380.225 343.632 377.707 347.363 378.159C349.222 378.385 351.667 379.626 354.317 381.693C356.924 383.727 359.563 386.428 361.797 389.311C364.037 392.202 365.817 395.209 366.767 397.838C367.75 400.561 367.693 402.448 366.985 403.501Z" fill="#FFEBEB" stroke="#FAA6A6" stroke-width="3"/>
<path d="M401.683 308.796C400.711 309.611 398.801 309.876 395.909 309.201C393.122 308.55 389.852 307.121 386.658 305.237C383.47 303.359 380.432 301.072 378.098 298.765C375.715 296.41 374.25 294.214 373.889 292.536C373.14 289.052 375.182 284.822 378.725 281.773C382.263 278.729 386.682 277.387 390.116 278.867C391.825 279.603 393.807 281.483 395.753 284.218C397.667 286.908 399.423 290.25 400.741 293.656C402.063 297.071 402.913 300.469 403.077 303.269C403.245 306.169 402.659 307.976 401.683 308.796Z" fill="#FFEBEB" stroke="#FAA6A6" stroke-width="3"/>
<path d="M451.22 297.427C449.99 297.687 448.203 297.018 446.007 295.043C443.893 293.141 441.733 290.319 439.856 287.13C437.983 283.948 436.436 280.476 435.511 277.319C434.567 274.097 434.345 271.451 434.838 269.787C435.859 266.34 439.665 263.562 444.208 262.543C448.743 261.526 453.231 262.433 455.511 265.379C456.647 266.846 457.471 269.459 457.852 272.81C458.227 276.107 458.15 279.907 457.663 283.554C457.174 287.211 456.283 290.63 455.08 293.192C453.834 295.846 452.457 297.165 451.22 297.427Z" fill="#FFEBEB" stroke="#FAA6A6" stroke-width="3"/>
<path d="M348.102 348.961C347.131 349.776 345.221 350.041 342.329 349.366C339.541 348.715 336.272 347.286 333.077 345.403C329.89 343.524 326.851 341.237 324.517 338.93C322.134 336.575 320.669 334.379 320.308 332.701C319.559 329.217 321.601 324.988 325.144 321.939C328.682 318.894 333.101 317.552 336.535 319.032C338.244 319.768 340.227 321.648 342.173 324.383C344.087 327.073 345.843 330.416 347.161 333.822C348.482 337.236 349.333 340.634 349.496 343.435C349.665 346.335 349.078 348.141 348.102 348.961Z" fill="#FFEBEB" stroke="#FAA6A6" stroke-width="3"/>
<path d="M543.335 543.583L644.059 482.579C691.099 454.089 695.766 388.406 653.273 352.901L616.868 322.484C608.746 315.698 599.374 310.522 589.277 307.247L528.656 287.584C477.063 270.849 424.01 307.202 422.236 360.506L418.537 471.591C416.398 535.846 487.954 577.124 543.335 543.583Z" fill="#C75151" stroke="black" stroke-width="10"/>
<path d="M652.606 352.964C652.639 352.07 652.661 351.24 652.677 350.486C653.37 350.417 654.126 350.337 654.935 350.244C659.107 349.765 664.761 348.933 670.584 347.517C676.356 346.114 682.571 344.074 687.71 341.063C692.791 338.085 697.558 333.71 698.97 327.376C700.006 322.729 697.613 318.951 694.883 316.38C692.15 313.806 688.295 311.627 684.089 309.748C675.596 305.954 664.129 302.724 652.846 300.111C641.495 297.481 630.05 295.414 621.463 294.005C617.164 293.3 613.57 292.758 611.047 292.392C609.92 292.228 609.005 292.1 608.338 292.007C607.937 291.715 607.427 291.343 606.817 290.9C605.185 289.716 602.836 288.025 599.964 285.992C594.221 281.929 586.368 276.489 577.941 270.992C569.529 265.506 560.473 259.917 552.34 255.584C548.276 253.418 544.372 251.529 540.848 250.118C537.401 248.738 533.997 247.683 531.021 247.426C527.799 247.147 524.765 247.822 522.272 249.704C519.859 251.526 518.492 254.073 517.723 256.551C516.235 261.339 516.531 267.319 517.259 272.567C518.011 277.988 519.343 283.386 520.464 287.377C520.798 288.564 521.116 289.636 521.398 290.559C520.207 291.418 518.722 292.506 517.043 293.775C512.713 297.05 507.028 301.581 501.73 306.531C496.514 311.404 491.325 317.001 488.324 322.421C486.822 325.133 485.643 328.198 485.582 331.357C485.516 334.748 486.758 337.956 489.524 340.456C492.071 342.759 495.568 344.118 499.092 344.989C502.714 345.885 506.917 346.393 511.356 346.646C520.241 347.151 530.659 346.659 540.488 345.807C550.349 344.953 559.772 343.724 566.72 342.711C569.964 342.237 572.676 341.81 574.649 341.488C575.734 343.442 577.29 346.202 579.205 349.479C583.062 356.076 588.4 364.814 594.292 373.297C600.141 381.721 606.709 390.146 613.041 395.944C616.191 398.827 619.549 401.311 622.968 402.722C626.445 404.156 630.549 404.681 634.425 402.615C640.104 399.589 643.77 393.957 646.207 388.189C648.683 382.327 650.188 375.61 651.122 369.421C652.06 363.195 652.45 357.293 652.606 352.964Z" fill="#4FCB8F" stroke="black" stroke-width="10"/>
<path d="M451.955 402.958C450.698 402.813 449.189 401.607 447.682 399.038C446.229 396.563 445.007 393.201 444.164 389.582C443.323 385.97 442.879 382.187 442.935 378.901C442.993 375.548 443.569 372.971 444.533 371.553C446.533 368.611 450.997 367.186 455.642 367.666C460.281 368.144 464.298 370.434 465.597 373.95C466.244 375.701 466.253 378.437 465.62 381.734C464.997 384.978 463.793 388.555 462.242 391.857C460.686 395.168 458.818 398.124 456.907 400.17C454.929 402.289 453.22 403.104 451.955 402.958Z" fill="#FFEBEB" stroke="#FAA6A6" stroke-width="3"/>
<path d="M512.346 468.399C511.288 467.706 510.496 465.961 510.335 463.009C510.18 460.166 510.64 456.64 511.56 453.057C512.477 449.482 513.83 445.933 515.4 443.049C517.002 440.106 518.71 438.083 520.228 437.26C523.38 435.554 528.032 436.298 531.967 438.809C535.896 441.316 538.432 445.147 537.969 448.844C537.738 450.685 536.481 453.112 534.389 455.746C532.331 458.338 529.6 460.964 526.684 463.191C523.761 465.423 520.722 467.202 518.065 468.154C515.314 469.141 513.409 469.095 512.346 468.399Z" fill="#FFEBEB" stroke="#FAA6A6" stroke-width="3"/>
<path d="M534.701 513.861C533.874 512.921 533.584 511.039 534.236 508.159C534.863 505.387 536.272 502.123 538.14 498.925C540.004 495.736 542.281 492.686 544.587 490.333C546.94 487.932 549.145 486.44 550.84 486.053C554.352 485.251 558.64 487.201 561.75 490.652C564.855 494.098 566.258 498.447 564.8 501.876C564.073 503.585 562.192 505.584 559.45 507.559C556.753 509.502 553.396 511.299 549.97 512.663C546.536 514.031 543.113 514.931 540.286 515.141C537.356 515.358 535.533 514.806 534.701 513.861Z" fill="#FFEBEB" stroke="#FAA6A6" stroke-width="3"/>
<path d="M478.545 526.262C477.323 525.922 476.026 524.496 474.949 521.729C473.911 519.063 473.243 515.558 472.992 511.859C472.742 508.168 472.912 504.37 473.497 501.14C474.094 497.844 475.079 495.395 476.26 494.149C478.712 491.562 483.356 490.856 487.874 492.055C492.386 493.253 495.99 496.139 496.709 499.807C497.067 501.633 496.635 504.331 495.478 507.482C494.34 510.581 492.573 513.918 490.507 516.93C488.436 519.95 486.112 522.572 483.893 524.289C481.595 526.067 479.773 526.604 478.545 526.262Z" fill="#FFEBEB" stroke="#FAA6A6" stroke-width="3"/>
<path d="M465.893 465C464.631 465.027 462.971 464.038 461.118 461.695C459.334 459.439 457.652 456.271 456.31 452.796C454.97 449.329 454 445.636 453.594 442.369C453.179 439.035 453.387 436.399 454.141 434.86C455.706 431.668 459.919 429.647 464.578 429.488C469.231 429.33 473.524 431.052 475.304 434.363C476.19 436.011 476.584 438.725 476.421 442.083C476.26 445.385 475.573 449.098 474.503 452.585C473.43 456.081 471.998 459.269 470.395 461.559C468.736 463.931 467.161 464.972 465.893 465Z" fill="#FFEBEB" stroke="#FAA6A6" stroke-width="3"/>
<path d="M563.294 438.808C562.068 438.484 560.751 437.075 559.637 434.322C558.563 431.669 557.848 428.173 557.547 424.476C557.247 420.789 557.366 416.988 557.907 413.751C558.459 410.447 559.41 407.984 560.574 406.722C562.991 404.103 567.624 403.336 572.158 404.476C576.684 405.614 580.327 408.453 581.095 412.112C581.478 413.934 581.083 416.637 579.969 419.803C578.872 422.917 577.151 426.278 575.127 429.318C573.097 432.365 570.809 435.017 568.614 436.764C566.341 438.572 564.526 439.133 563.294 438.808Z" fill="#FFEBEB" stroke="#FAA6A6" stroke-width="3"/>
<path d="M601.122 472.752C600.201 471.896 599.718 470.05 600.068 467.118C600.405 464.294 601.467 460.903 602.993 457.531C604.515 454.168 606.462 450.902 608.51 448.328C610.599 445.701 612.635 443.995 614.278 443.439C617.685 442.288 622.148 443.799 625.598 446.925C629.042 450.047 630.885 454.238 629.791 457.798C629.245 459.572 627.584 461.751 625.065 463.993C622.586 466.198 619.436 468.324 616.173 470.027C612.902 471.734 609.595 472.975 606.808 473.467C603.92 473.978 602.048 473.612 601.122 472.752Z" fill="#FFEBEB" stroke="#FAA6A6" stroke-width="3"/>
<path d="M499.597 418.147C498.371 417.823 497.054 416.414 495.94 413.661C494.866 411.008 494.151 407.512 493.85 403.815C493.55 400.128 493.669 396.327 494.21 393.09C494.762 389.786 495.713 387.323 496.878 386.061C499.294 383.442 503.928 382.675 508.461 383.815C512.988 384.953 516.63 387.792 517.398 391.451C517.781 393.273 517.386 395.976 516.272 399.142C515.176 402.256 513.455 405.617 511.43 408.657C509.4 411.704 507.112 414.356 504.917 416.103C502.644 417.911 500.83 418.472 499.597 418.147Z" fill="#FFEBEB" stroke="#FAA6A6" stroke-width="3"/>
</svg>
